<svg xmlns="http://www.w3.org/2000/svg" width="1440" viewBox="0 0 1440 810" height="810" version="1.0"><defs><clipPath id="a"><path d="M 968 479 L 1023.839844 479 L 1023.839844 583 L 968 583 Z M 968 479"/></clipPath><clipPath id="b"><path d="M 416.339844 467 L 472 467 L 472 572 L 416.339844 572 Z M 416.339844 467"/></clipPath></defs><path fill="#FFF" d="M-144 -81H1584V891H-144z"/><path fill="#FFF" d="M-144 -81H1584V891H-144z"/><path fill="#FFF" d="M-144 -81H1584V891H-144z"/><path fill="#D8D4D3" d="M 858.867188 261.132812 C 858.867188 263.269531 858.816406 265.402344 858.710938 267.535156 C 858.605469 269.664062 858.449219 271.792969 858.238281 273.917969 C 858.027344 276.042969 857.769531 278.160156 857.453125 280.269531 C 857.140625 282.382812 856.777344 284.484375 856.359375 286.578125 C 855.941406 288.671875 855.472656 290.753906 854.957031 292.824219 C 854.4375 294.894531 853.867188 296.949219 853.246094 298.992188 C 852.625 301.035156 851.957031 303.0625 851.238281 305.070312 C 850.515625 307.082031 849.75 309.070312 848.929688 311.042969 C 848.113281 313.015625 847.25 314.964844 846.335938 316.894531 C 845.421875 318.824219 844.460938 320.730469 843.453125 322.613281 C 842.449219 324.496094 841.394531 326.351562 840.296875 328.183594 C 839.199219 330.015625 838.054688 331.816406 836.871094 333.589844 C 835.683594 335.367188 834.453125 337.109375 833.179688 338.824219 C 831.90625 340.539062 830.59375 342.222656 829.238281 343.871094 C 827.882812 345.519531 826.488281 347.136719 825.054688 348.71875 C 823.621094 350.300781 822.148438 351.84375 820.636719 353.355469 C 819.125 354.863281 817.578125 356.335938 815.996094 357.769531 C 814.414062 359.203125 812.796875 360.59375 811.144531 361.949219 C 809.496094 363.304688 807.8125 364.617188 806.09375 365.886719 C 804.378906 367.160156 802.632812 368.386719 800.859375 369.574219 C 799.082031 370.757812 797.277344 371.902344 795.445312 373 C 793.613281 374.097656 791.753906 375.148438 789.871094 376.152344 C 787.988281 377.160156 786.078125 378.121094 784.148438 379.03125 C 782.21875 379.945312 780.265625 380.808594 778.292969 381.625 C 776.316406 382.441406 774.324219 383.210938 772.3125 383.929688 C 770.304688 384.648438 768.273438 385.316406 766.230469 385.9375 C 764.1875 386.558594 762.128906 387.125 760.058594 387.644531 C 757.984375 388.164062 755.902344 388.632812 753.804688 389.046875 C 751.710938 389.464844 749.605469 389.828125 747.492188 390.140625 C 745.378906 390.453125 743.261719 390.714844 741.136719 390.925781 C 739.007812 391.132812 736.878906 391.292969 734.746094 391.394531 C 732.613281 391.5 730.476562 391.554688 728.339844 391.554688 C 726.207031 391.554688 724.070312 391.5 721.9375 391.394531 C 719.804688 391.292969 717.671875 391.132812 715.546875 390.925781 C 713.421875 390.714844 711.300781 390.453125 709.191406 390.140625 C 707.078125 389.828125 704.972656 389.464844 702.878906 389.046875 C 700.78125 388.632812 698.699219 388.164062 696.625 387.644531 C 694.554688 387.125 692.496094 386.558594 690.453125 385.9375 C 688.40625 385.316406 686.378906 384.648438 684.367188 383.929688 C 682.359375 383.210938 680.367188 382.441406 678.390625 381.625 C 676.417969 380.808594 674.464844 379.945312 672.535156 379.03125 C 670.605469 378.121094 668.695312 377.160156 666.8125 376.152344 C 664.929688 375.148438 663.070312 374.097656 661.238281 373 C 659.40625 371.902344 657.601562 370.757812 655.824219 369.574219 C 654.050781 368.386719 652.304688 367.160156 650.585938 365.886719 C 648.871094 364.617188 647.1875 363.304688 645.539062 361.949219 C 643.886719 360.59375 642.269531 359.203125 640.6875 357.769531 C 639.101562 356.335938 637.558594 354.863281 636.046875 353.355469 C 634.535156 351.84375 633.0625 350.300781 631.628906 348.71875 C 630.195312 347.136719 628.800781 345.519531 627.445312 343.871094 C 626.089844 342.222656 624.773438 340.539062 623.503906 338.824219 C 622.230469 337.109375 621 335.367188 619.8125 333.589844 C 618.625 331.816406 617.484375 330.015625 616.386719 328.183594 C 615.289062 326.351562 614.234375 324.496094 613.226562 322.613281 C 612.222656 320.730469 611.261719 318.824219 610.347656 316.894531 C 609.433594 314.964844 608.570312 313.015625 607.75 311.042969 C 606.933594 309.070312 606.164062 307.082031 605.445312 305.070312 C 604.726562 303.0625 604.058594 301.035156 603.4375 298.992188 C 602.816406 296.949219 602.246094 294.894531 601.726562 292.824219 C 601.207031 290.753906 600.742188 288.671875 600.324219 286.578125 C 599.90625 284.484375 599.542969 282.382812 599.230469 280.269531 C 598.914062 278.160156 598.652344 276.042969 598.445312 273.917969 C 598.234375 271.792969 598.078125 269.664062 597.972656 267.535156 C 597.867188 265.402344 597.816406 263.269531 597.816406 261.132812 C 597.816406 259 597.867188 256.867188 597.972656 254.734375 C 598.078125 252.601562 598.234375 250.476562 598.445312 248.351562 C 598.652344 246.226562 598.914062 244.109375 599.230469 242 C 599.542969 239.886719 599.90625 237.785156 600.324219 235.691406 C 600.742188 233.597656 601.207031 231.515625 601.726562 229.445312 C 602.246094 227.375 602.816406 225.320312 603.4375 223.277344 C 604.058594 221.234375 604.726562 219.207031 605.445312 217.199219 C 606.164062 215.1875 606.933594 213.199219 607.75 211.226562 C 608.570312 209.253906 609.433594 207.300781 610.347656 205.375 C 611.261719 203.445312 612.222656 201.539062 613.226562 199.65625 C 614.234375 197.773438 615.289062 195.917969 616.386719 194.085938 C 617.484375 192.253906 618.625 190.453125 619.8125 188.675781 C 621 186.902344 622.230469 185.160156 623.503906 183.445312 C 624.773438 181.730469 626.089844 180.046875 627.445312 178.398438 C 628.800781 176.746094 630.195312 175.132812 631.628906 173.550781 C 633.0625 171.96875 634.535156 170.421875 636.046875 168.914062 C 637.558594 167.40625 639.101562 165.933594 640.6875 164.5 C 642.269531 163.066406 643.886719 161.671875 645.539062 160.320312 C 647.1875 158.964844 648.871094 157.652344 650.585938 156.382812 C 652.304688 155.109375 654.050781 153.882812 655.824219 152.695312 C 657.601562 151.507812 659.40625 150.367188 661.238281 149.269531 C 663.070312 148.171875 664.929688 147.121094 666.8125 146.117188 C 668.695312 145.109375 670.605469 144.148438 672.535156 143.238281 C 674.464844 142.324219 676.417969 141.460938 678.390625 140.644531 C 680.367188 139.828125 682.359375 139.058594 684.367188 138.339844 C 686.378906 137.621094 688.40625 136.949219 690.453125 136.332031 C 692.496094 135.710938 694.554688 135.144531 696.625 134.625 C 698.699219 134.105469 700.78125 133.636719 702.878906 133.222656 C 704.972656 132.804688 707.078125 132.441406 709.191406 132.128906 C 711.300781 131.8125 713.421875 131.554688 715.546875 131.34375 C 717.671875 131.132812 719.804688 130.976562 721.9375 130.871094 C 724.070312 130.769531 726.207031 130.714844 728.339844 130.714844 C 730.476562 130.714844 732.613281 130.769531 734.746094 130.871094 C 736.878906 130.976562 739.007812 131.132812 741.136719 131.34375 C 743.261719 131.554688 745.378906 131.8125 747.492188 132.128906 C 749.605469 132.441406 751.710938 132.804688 753.804688 133.222656 C 755.902344 133.636719 757.984375 134.105469 760.058594 134.625 C 762.128906 135.144531 764.1875 135.710938 766.230469 136.332031 C 768.273438 136.949219 770.304688 137.621094 772.3125 138.339844 C 774.324219 139.058594 776.316406 139.828125 778.292969 140.644531 C 780.265625 141.460938 782.21875 142.324219 784.148438 143.238281 C 786.078125 144.148438 787.988281 145.109375 789.871094 146.117188 C 791.753906 147.121094 793.613281 148.171875 795.445312 149.269531 C 797.277344 150.367188 799.082031 151.507812 800.859375 152.695312 C 802.632812 153.882812 804.378906 155.109375 806.09375 156.382812 C 807.8125 157.652344 809.496094 158.964844 811.144531 160.320312 C 812.796875 161.671875 814.414062 163.066406 815.996094 164.5 C 817.578125 165.933594 819.125 167.40625 820.636719 168.914062 C 822.148438 170.421875 823.621094 171.96875 825.054688 173.550781 C 826.488281 175.132812 827.882812 176.746094 829.238281 178.398438 C 830.59375 180.046875 831.90625 181.730469 833.179688 183.445312 C 834.453125 185.160156 835.683594 186.902344 836.871094 188.675781 C 838.054688 190.453125 839.199219 192.253906 840.296875 194.085938 C 841.394531 195.917969 842.449219 197.773438 843.453125 199.65625 C 844.460938 201.539062 845.421875 203.445312 846.335938 205.375 C 847.25 207.300781 848.113281 209.253906 848.929688 211.226562 C 849.75 213.199219 850.515625 215.1875 851.238281 217.199219 C 851.957031 219.207031 852.625 221.234375 853.246094 223.277344 C 853.867188 225.320312 854.4375 227.375 854.957031 229.445312 C 855.472656 231.515625 855.941406 233.597656 856.359375 235.691406 C 856.777344 237.785156 857.140625 239.886719 857.453125 242 C 857.769531 244.109375 858.027344 246.226562 858.238281 248.351562 C 858.449219 250.476562 858.605469 252.601562 858.710938 254.734375 C 858.816406 256.867188 858.867188 259 858.867188 261.132812 Z M 858.867188 261.132812"/><path fill="#321019" d="M 728.34375 396.390625 C 653.703125 396.390625 592.980469 335.714844 592.980469 261.132812 C 592.980469 186.554688 653.703125 125.878906 728.34375 125.878906 C 802.984375 125.878906 863.707031 186.554688 863.707031 261.132812 C 863.707031 335.714844 802.984375 396.390625 728.34375 396.390625 Z M 728.34375 135.546875 C 659.035156 135.546875 602.652344 191.882812 602.652344 261.132812 C 602.652344 330.386719 659.035156 386.722656 728.34375 386.722656 C 797.648438 386.722656 854.035156 330.386719 854.035156 261.132812 C 854.035156 191.882812 797.648438 135.546875 728.34375 135.546875 Z M 728.34375 135.546875"/><path fill="#FFF" d="M 654.984375 354.410156 C 653.894531 354.410156 652.800781 354.042969 651.898438 353.292969 C 628.847656 334.179688 613.863281 307.410156 609.722656 277.925781 C 609.351562 275.285156 611.191406 272.839844 613.835938 272.46875 C 616.492188 272.089844 618.925781 273.9375 619.296875 276.582031 C 623.109375 303.679688 636.878906 328.277344 658.074219 345.855469 C 660.128906 347.558594 660.414062 350.605469 658.703125 352.660156 C 657.753906 353.8125 656.375 354.410156 654.984375 354.410156 Z M 654.984375 354.410156"/><path fill="#F2C70F" d="M 604.144531 251.992188 L 604.144531 243.148438 L 856.292969 243.148438 C 858.171875 233.75 859.183594 224.003906 859.183594 214.015625 C 859.183594 136.757812 800.039062 74.125 727.078125 74.125 C 654.121094 74.125 594.972656 136.757812 594.972656 214.015625 C 594.972656 227.183594 596.730469 239.914062 599.953125 251.992188 Z M 604.144531 251.992188"/><path fill="#321019" d="M 604.144531 256.828125 L 599.957031 256.828125 C 597.765625 256.828125 595.847656 255.355469 595.285156 253.242188 C 591.871094 240.453125 590.140625 227.257812 590.140625 214.015625 C 590.140625 134.214844 651.574219 69.292969 727.082031 69.292969 C 802.589844 69.292969 864.023438 134.214844 864.023438 214.015625 C 864.023438 224.058594 863.015625 234.175781 861.039062 244.097656 C 860.585938 246.359375 858.597656 247.984375 856.292969 247.984375 L 608.984375 247.984375 L 608.984375 251.996094 C 608.984375 254.664062 606.816406 256.828125 604.144531 256.828125 Z M 727.082031 78.960938 C 656.90625 78.960938 599.8125 139.546875 599.8125 214.015625 C 599.8125 222.335938 600.542969 230.640625 601.988281 238.824219 C 602.640625 238.5 603.371094 238.316406 604.144531 238.316406 L 852.273438 238.316406 C 853.648438 230.269531 854.347656 222.113281 854.347656 214.015625 C 854.347656 139.542969 797.253906 78.960938 727.082031 78.960938 Z M 727.082031 78.960938"/><path fill="#F2C70F" d="M 753.398438 213.613281 C 753.398438 230.355469 739.816406 243.925781 723.0625 243.925781 L 722.429688 243.925781 C 705.675781 243.925781 692.089844 230.355469 692.089844 213.613281 L 692.089844 84.773438 C 692.089844 68.035156 705.675781 54.460938 722.429688 54.460938 L 723.0625 54.460938 C 739.816406 54.460938 753.398438 68.035156 753.398438 84.773438 Z M 753.398438 213.613281"/><path fill="#321019" d="M 723.058594 248.757812 L 722.425781 248.757812 C 703.027344 248.757812 687.25 232.992188 687.25 213.613281 L 687.25 84.773438 C 687.25 65.394531 703.03125 49.628906 722.425781 49.628906 L 723.058594 49.628906 C 742.457031 49.628906 758.234375 65.394531 758.234375 84.773438 L 758.234375 213.613281 C 758.234375 232.992188 742.457031 248.757812 723.058594 248.757812 Z M 722.425781 59.296875 C 708.367188 59.296875 696.925781 70.726562 696.925781 84.777344 L 696.925781 213.613281 C 696.925781 227.664062 708.367188 239.097656 722.425781 239.097656 L 723.058594 239.097656 C 737.117188 239.097656 748.558594 227.664062 748.558594 213.613281 L 748.558594 84.777344 C 748.558594 70.726562 737.117188 59.296875 723.058594 59.296875 Z M 722.425781 59.296875"/><path fill="#F2C70F" d="M 898.476562 247.890625 C 898.476562 261.871094 885.527344 273.207031 869.554688 273.207031 L 587.128906 273.207031 C 571.15625 273.207031 558.210938 261.871094 558.210938 247.890625 C 558.210938 233.90625 571.15625 222.574219 587.128906 222.574219 L 869.554688 222.574219 C 885.527344 222.570312 898.476562 233.90625 898.476562 247.890625 Z M 898.476562 247.890625"/><path fill="#321019" d="M 869.554688 278.039062 L 587.128906 278.039062 C 568.519531 278.039062 553.375 264.515625 553.375 247.890625 C 553.375 231.265625 568.515625 217.742188 587.128906 217.742188 L 869.554688 217.742188 C 888.167969 217.742188 903.3125 231.269531 903.3125 247.890625 C 903.3125 264.515625 888.171875 278.039062 869.554688 278.039062 Z M 587.128906 227.40625 C 573.851562 227.40625 563.050781 236.59375 563.050781 247.886719 C 563.050781 259.183594 573.851562 268.371094 587.128906 268.371094 L 869.554688 268.371094 C 882.835938 268.371094 893.640625 259.179688 893.640625 247.886719 C 893.640625 236.59375 882.835938 227.40625 869.554688 227.40625 Z M 587.128906 227.40625"/><path fill="#F2C70F" d="M 965.308594 673.203125 C 965.308594 684.558594 956.097656 693.765625 944.726562 693.765625 L 504.019531 693.765625 C 492.660156 693.765625 483.445312 684.5625 483.445312 673.203125 L 438.855469 393.914062 C 438.855469 382.5625 448.070312 373.351562 459.4375 373.351562 L 989.316406 373.351562 C 1000.679688 373.351562 1009.894531 382.558594 1009.894531 393.914062 Z M 965.308594 673.203125"/><path fill="#FFF" d="M 467.585938 448.382812 C 465.25 448.382812 463.199219 446.691406 462.820312 444.3125 L 456.832031 406.785156 C 456.789062 406.53125 456.769531 406.277344 456.769531 406.023438 C 456.769531 392.601562 467.695312 381.679688 481.128906 381.679688 L 519.453125 381.679688 C 522.125 381.679688 524.289062 383.84375 524.289062 386.511719 C 524.289062 389.179688 522.125 391.34375 519.453125 391.34375 L 481.128906 391.34375 C 473.148438 391.34375 466.640625 397.734375 466.445312 405.664062 L 472.371094 442.789062 C 472.792969 445.421875 470.996094 447.902344 468.359375 448.324219 C 468.097656 448.363281 467.84375 448.382812 467.585938 448.382812 Z M 467.585938 448.382812"/><path fill="#D8D4D3" d="M 1019.046875 557.261719 C 1019.046875 568.617188 1009.832031 577.824219 998.464844 577.824219 L 993.890625 577.824219 C 982.523438 577.824219 973.316406 568.617188 973.316406 557.261719 L 973.316406 504.710938 C 973.316406 493.359375 982.519531 484.152344 993.890625 484.152344 L 998.464844 484.152344 C 1009.828125 484.152344 1019.046875 493.355469 1019.046875 504.710938 Z M 1019.046875 557.261719"/><g clip-path="url(#a)"><path fill="#321019" d="M 998.464844 582.65625 L 993.890625 582.65625 C 979.878906 582.65625 968.476562 571.265625 968.476562 557.261719 L 968.476562 504.710938 C 968.476562 490.710938 979.878906 479.320312 993.890625 479.320312 L 998.464844 479.320312 C 1012.480469 479.320312 1023.882812 490.710938 1023.882812 504.710938 L 1023.882812 557.261719 C 1023.882812 571.265625 1012.476562 582.65625 998.464844 582.65625 Z M 993.890625 488.988281 C 985.214844 488.988281 978.152344 496.042969 978.152344 504.714844 L 978.152344 557.265625 C 978.152344 565.933594 985.210938 572.996094 993.890625 572.996094 L 998.464844 572.996094 C 1007.144531 572.996094 1014.207031 565.9375 1014.207031 557.265625 L 1014.207031 504.714844 C 1014.207031 496.046875 1007.148438 488.988281 998.464844 488.988281 Z M 993.890625 488.988281"/></g><path fill="#D8D4D3" d="M 466.867188 545.835938 C 466.867188 557.191406 457.65625 566.398438 446.285156 566.398438 L 441.714844 566.398438 C 430.347656 566.398438 421.136719 557.195312 421.136719 545.835938 L 421.136719 493.289062 C 421.136719 481.9375 430.34375 472.730469 441.714844 472.730469 L 446.285156 472.730469 C 457.652344 472.730469 466.867188 481.933594 466.867188 493.289062 Z M 466.867188 545.835938"/><g clip-path="url(#b)"><path fill="#321019" d="M 446.289062 571.230469 L 441.71875 571.230469 C 427.703125 571.230469 416.304688 559.839844 416.304688 545.835938 L 416.304688 493.292969 C 416.304688 479.289062 427.703125 467.894531 441.71875 467.894531 L 446.289062 467.894531 C 460.304688 467.894531 471.707031 479.289062 471.707031 493.292969 L 471.707031 545.835938 C 471.707031 559.839844 460.304688 571.230469 446.289062 571.230469 Z M 441.71875 477.566406 C 433.039062 477.566406 425.976562 484.621094 425.976562 493.292969 L 425.976562 545.839844 C 425.976562 554.511719 433.035156 561.570312 441.71875 561.570312 L 446.289062 561.570312 C 454.96875 561.570312 462.035156 554.511719 462.035156 545.839844 L 462.035156 493.292969 C 462.035156 484.625 454.972656 477.566406 446.289062 477.566406 Z M 441.71875 477.566406"/></g><g fill="#FFC1B2" fill-opacity=".302"><g><g><path d="M 27.164062 -33.203125 C 25.949219 -34.648438 24.464844 -35.789062 22.792969 -36.585938 C 21.085938 -37.34375 19.222656 -37.761719 17.246094 -37.761719 L 5.128906 -37.761719 C 4.863281 -37.761719 4.671875 -37.648438 4.597656 -37.421875 C 4.484375 -37.191406 4.519531 -37.003906 4.710938 -36.8125 C 5.394531 -36.054688 5.773438 -35.140625 5.773438 -34.117188 L 5.773438 -3.648438 C 5.773438 -2.582031 5.394531 -1.710938 4.710938 -0.949219 C 4.519531 -0.722656 4.484375 -0.53125 4.597656 -0.304688 C 4.671875 -0.0742188 4.863281 0 5.128906 0 L 13.714844 0 C 13.941406 0 14.132812 -0.0742188 14.207031 -0.304688 C 14.285156 -0.53125 14.285156 -0.722656 14.132812 -0.949219 C 13.5625 -1.558594 13.296875 -2.242188 13.296875 -3 L 13.296875 -8.546875 C 13.296875 -8.929688 13.410156 -9.269531 13.714844 -9.574219 C 13.980469 -9.839844 14.324219 -9.992188 14.742188 -9.992188 L 17.246094 -9.992188 C 19.222656 -9.992188 21.085938 -10.371094 22.792969 -11.132812 C 24.464844 -11.890625 25.949219 -13.03125 27.164062 -14.511719 C 28.1875 -15.765625 28.988281 -17.210938 29.519531 -18.804688 C 30.050781 -20.402344 30.355469 -22.074219 30.355469 -23.820312 C 30.355469 -25.566406 30.050781 -27.277344 29.519531 -28.871094 C 28.988281 -30.46875 28.1875 -31.914062 27.164062 -33.203125 Z M 21.351562 -19.300781 C 20.402344 -18.082031 19.035156 -17.515625 17.246094 -17.515625 L 14.359375 -17.515625 C 14.054688 -17.515625 13.828125 -17.589844 13.601562 -17.816406 C 13.371094 -18.007812 13.296875 -18.234375 13.296875 -18.539062 L 13.296875 -29.175781 C 13.296875 -29.441406 13.371094 -29.671875 13.601562 -29.898438 C 13.828125 -30.125 14.054688 -30.242188 14.359375 -30.242188 L 17.246094 -30.242188 C 18.617188 -30.242188 19.640625 -29.9375 20.402344 -29.328125 C 21.160156 -28.722656 21.691406 -28.035156 22.074219 -27.277344 C 22.414062 -26.515625 22.640625 -25.796875 22.71875 -25.113281 C 22.792969 -24.429688 22.832031 -23.972656 22.832031 -23.820312 C 22.832031 -22.910156 22.679688 -22.074219 22.453125 -21.3125 C 22.1875 -20.554688 21.804688 -19.867188 21.351562 -19.300781 Z M 21.351562 -19.300781" transform="translate(504.785 494.82)"/></g></g></g><g fill="#FFC1B2" fill-opacity=".302"><g><g><path d="M 31.078125 -0.949219 L 30.507812 -1.40625 C 29.898438 -1.898438 29.367188 -2.507812 28.949219 -3.191406 L 24.238281 -10.714844 C 24.085938 -10.941406 24.011719 -11.207031 24.085938 -11.511719 C 24.160156 -11.777344 24.3125 -12.003906 24.578125 -12.195312 C 25.53125 -12.878906 26.367188 -13.636719 27.050781 -14.511719 C 28.074219 -15.765625 28.871094 -17.210938 29.40625 -18.804688 C 29.9375 -20.402344 30.242188 -22.074219 30.242188 -23.820312 C 30.242188 -25.566406 29.9375 -27.277344 29.40625 -28.871094 C 28.871094 -30.46875 28.074219 -31.914062 27.050781 -33.203125 C 25.832031 -34.648438 24.351562 -35.789062 22.679688 -36.585938 C 20.972656 -37.34375 19.109375 -37.761719 17.132812 -37.761719 L 5.128906 -37.761719 C 4.863281 -37.761719 4.671875 -37.648438 4.597656 -37.421875 C 4.484375 -37.191406 4.519531 -37.003906 4.710938 -36.8125 C 5.320312 -36.128906 5.660156 -35.332031 5.660156 -34.417969 L 5.660156 -3.265625 C 5.660156 -2.394531 5.355469 -1.632812 4.785156 -0.988281 C 4.558594 -0.761719 4.519531 -0.570312 4.636719 -0.34375 C 4.710938 -0.113281 4.902344 0 5.203125 0 L 13.714844 0 C 13.941406 0 14.132812 -0.0742188 14.207031 -0.304688 C 14.285156 -0.53125 14.285156 -0.722656 14.132812 -0.949219 C 13.488281 -1.632812 13.183594 -2.394531 13.183594 -3.304688 L 13.183594 -8.851562 C 13.183594 -9.15625 13.257812 -9.421875 13.488281 -9.648438 C 13.714844 -9.878906 13.980469 -9.992188 14.285156 -9.992188 L 15.195312 -9.992188 C 15.574219 -9.992188 15.917969 -9.800781 16.144531 -9.460938 L 20.820312 -1.9375 C 21.007812 -1.59375 20.972656 -1.292969 20.742188 -0.988281 L 20.703125 -0.949219 C 20.554688 -0.722656 20.554688 -0.53125 20.667969 -0.304688 C 20.742188 -0.0742188 20.933594 0 21.199219 0 L 30.808594 0 C 31.078125 0 31.226562 -0.113281 31.304688 -0.34375 C 31.378906 -0.570312 31.304688 -0.761719 31.078125 -0.949219 Z M 21.238281 -19.300781 C 20.285156 -18.082031 18.917969 -17.515625 17.132812 -17.515625 L 14.285156 -17.515625 C 13.980469 -17.515625 13.714844 -17.589844 13.488281 -17.816406 C 13.257812 -18.046875 13.183594 -18.3125 13.183594 -18.617188 L 13.183594 -29.101562 C 13.183594 -29.40625 13.257812 -29.671875 13.488281 -29.898438 C 13.714844 -30.125 13.980469 -30.242188 14.285156 -30.242188 L 17.132812 -30.242188 C 18.5 -30.242188 19.527344 -29.9375 20.285156 -29.328125 C 21.046875 -28.722656 21.578125 -28.035156 21.957031 -27.277344 C 22.300781 -26.515625 22.527344 -25.796875 22.605469 -25.113281 C 22.679688 -24.429688 22.71875 -23.972656 22.71875 -23.820312 C 22.71875 -22.910156 22.566406 -22.074219 22.339844 -21.3125 C 22.074219 -20.554688 21.691406 -19.867188 21.238281 -19.300781 Z M 21.238281 -19.300781" transform="translate(538.215 494.82)"/></g></g></g><g fill="#FFC1B2" fill-opacity=".302"><g><g><path d="M 28.722656 -31.835938 C 27.277344 -33.734375 25.566406 -35.179688 23.667969 -36.203125 C 21.730469 -37.191406 19.71875 -37.726562 17.589844 -37.726562 C 15.460938 -37.726562 13.410156 -37.191406 11.472656 -36.203125 C 9.535156 -35.179688 7.863281 -33.734375 6.421875 -31.835938 C 5.054688 -30.050781 4.027344 -28.035156 3.34375 -25.832031 C 2.621094 -23.628906 2.28125 -21.273438 2.28125 -18.84375 C 2.28125 -16.410156 2.621094 -14.054688 3.34375 -11.851562 C 4.027344 -9.613281 5.054688 -7.636719 6.421875 -5.886719 C 7.863281 -3.988281 9.535156 -2.507812 11.472656 -1.519531 C 13.410156 -0.492188 15.460938 0 17.589844 0 C 19.71875 0 21.730469 -0.492188 23.667969 -1.519531 C 25.566406 -2.507812 27.277344 -3.988281 28.722656 -5.886719 C 30.089844 -7.636719 31.113281 -9.613281 31.835938 -11.851562 C 32.519531 -14.054688 32.898438 -16.410156 32.898438 -18.84375 C 32.898438 -21.273438 32.519531 -23.628906 31.835938 -25.832031 C 31.113281 -28.035156 30.089844 -30.050781 28.722656 -31.835938 Z M 17.589844 -7.523438 C 16.527344 -7.523438 15.5 -7.824219 14.589844 -8.433594 C 13.636719 -9.042969 12.804688 -9.839844 12.117188 -10.867188 C 11.398438 -11.890625 10.828125 -13.105469 10.410156 -14.472656 C 9.992188 -15.84375 9.800781 -17.285156 9.800781 -18.84375 C 9.800781 -20.363281 9.992188 -21.84375 10.410156 -23.210938 C 10.828125 -24.578125 11.398438 -25.757812 12.117188 -26.820312 C 12.804688 -27.847656 13.636719 -28.683594 14.589844 -29.289062 C 15.5 -29.898438 16.527344 -30.203125 17.589844 -30.203125 C 18.652344 -30.203125 19.640625 -29.898438 20.589844 -29.289062 C 21.503906 -28.683594 22.339844 -27.847656 23.023438 -26.820312 C 23.707031 -25.757812 24.277344 -24.578125 24.695312 -23.210938 C 25.113281 -21.84375 25.339844 -20.363281 25.339844 -18.84375 C 25.339844 -17.285156 25.113281 -15.84375 24.695312 -14.472656 C 24.277344 -13.105469 23.707031 -11.890625 23.023438 -10.867188 C 22.339844 -9.839844 21.503906 -9.042969 20.589844 -8.433594 C 19.640625 -7.824219 18.652344 -7.523438 17.589844 -7.523438 Z M 17.589844 -7.523438" transform="translate(574.114 494.82)"/></g></g></g><g fill="#FFC1B2" fill-opacity=".302"><g><g><path d="M 27.621094 -38.675781 C 26.933594 -38.066406 26.175781 -37.761719 25.265625 -37.761719 L 5.167969 -37.761719 C 4.902344 -37.761719 4.710938 -37.648438 4.636719 -37.421875 C 4.519531 -37.191406 4.519531 -37.003906 4.671875 -36.8125 L 4.710938 -36.773438 C 5.320312 -36.089844 5.621094 -35.292969 5.621094 -34.417969 L 5.621094 -3.304688 C 5.621094 -2.394531 5.320312 -1.632812 4.710938 -0.949219 L 4.671875 -0.910156 C 4.519531 -0.683594 4.519531 -0.492188 4.636719 -0.304688 C 4.710938 -0.0742188 4.902344 0 5.167969 0 L 13.5625 0 C 13.789062 0 13.980469 -0.0742188 14.09375 -0.304688 C 14.171875 -0.492188 14.171875 -0.683594 14.054688 -0.910156 C 13.449219 -1.59375 13.144531 -2.355469 13.144531 -3.265625 L 13.144531 -14.324219 C 13.144531 -14.511719 13.222656 -14.703125 13.371094 -14.855469 C 13.523438 -15.007812 13.714844 -15.121094 13.941406 -15.121094 L 17.476562 -15.121094 C 18.386719 -15.121094 19.148438 -14.777344 19.792969 -14.171875 L 19.832031 -14.171875 C 20.019531 -14.019531 20.210938 -14.019531 20.4375 -14.132812 C 20.667969 -14.207031 20.78125 -14.398438 20.78125 -14.664062 L 20.78125 -23.058594 C 20.78125 -23.289062 20.667969 -23.476562 20.4375 -23.59375 C 20.210938 -23.707031 20.019531 -23.707031 19.832031 -23.554688 C 19.148438 -22.945312 18.386719 -22.640625 17.476562 -22.640625 L 13.941406 -22.640625 C 13.714844 -22.640625 13.523438 -22.71875 13.371094 -22.871094 C 13.222656 -23.023438 13.144531 -23.210938 13.144531 -23.441406 L 13.144531 -29.40625 C 13.144531 -29.632812 13.222656 -29.824219 13.371094 -29.972656 C 13.523438 -30.125 13.714844 -30.203125 13.941406 -30.203125 L 25.265625 -30.203125 C 26.175781 -30.203125 26.933594 -29.898438 27.621094 -29.289062 C 27.808594 -29.140625 28 -29.140625 28.226562 -29.253906 C 28.453125 -29.328125 28.570312 -29.519531 28.570312 -29.785156 L 28.570312 -38.179688 C 28.570312 -38.410156 28.453125 -38.597656 28.226562 -38.710938 C 28 -38.789062 27.808594 -38.789062 27.621094 -38.675781 Z M 27.621094 -38.675781" transform="translate(609.29 494.82)"/></g></g></g><g fill="#FFC1B2" fill-opacity=".302"><g><g><path d="M 27.65625 -38.558594 C 27.011719 -37.953125 26.25 -37.6875 25.414062 -37.6875 L 5.167969 -37.6875 C 4.902344 -37.6875 4.710938 -37.574219 4.636719 -37.34375 C 4.519531 -37.117188 4.519531 -36.925781 4.671875 -36.738281 L 4.785156 -36.621094 C 5.394531 -35.9375 5.699219 -35.140625 5.699219 -34.230469 L 5.699219 -3.382812 C 5.699219 -2.925781 5.621094 -2.507812 5.46875 -2.089844 C 5.320312 -1.671875 5.089844 -1.292969 4.785156 -0.988281 L 4.671875 -0.875 C 4.519531 -0.644531 4.519531 -0.457031 4.636719 -0.226562 C 4.710938 0 4.902344 0.0742188 5.167969 0.0742188 L 25.414062 0.0742188 C 26.25 0.0742188 27.011719 0.378906 27.65625 0.949219 C 27.847656 1.140625 28.074219 1.175781 28.304688 1.0625 C 28.53125 0.988281 28.683594 0.796875 28.683594 0.492188 L 28.683594 -7.976562 C 28.683594 -8.207031 28.570312 -8.394531 28.339844 -8.511719 C 28.113281 -8.585938 27.886719 -8.546875 27.734375 -8.394531 C 27.050781 -7.75 26.25 -7.445312 25.339844 -7.445312 L 14.171875 -7.445312 C 13.90625 -7.445312 13.675781 -7.523438 13.488281 -7.710938 C 13.296875 -7.863281 13.222656 -8.09375 13.222656 -8.394531 L 13.222656 -14.09375 C 13.222656 -14.359375 13.296875 -14.589844 13.488281 -14.777344 C 13.675781 -14.929688 13.90625 -15.042969 14.171875 -15.042969 L 17.515625 -15.042969 C 18.425781 -15.042969 19.222656 -14.703125 19.90625 -14.09375 C 20.097656 -13.941406 20.285156 -13.941406 20.515625 -14.054688 C 20.742188 -14.171875 20.855469 -14.359375 20.855469 -14.589844 L 20.855469 -23.023438 C 20.855469 -23.25 20.742188 -23.402344 20.515625 -23.515625 C 20.285156 -23.628906 20.097656 -23.628906 19.90625 -23.515625 C 19.222656 -22.871094 18.425781 -22.566406 17.515625 -22.566406 L 14.171875 -22.566406 C 13.90625 -22.566406 13.675781 -22.640625 13.488281 -22.832031 C 13.296875 -22.984375 13.222656 -23.210938 13.222656 -23.515625 L 13.222656 -29.214844 C 13.222656 -29.480469 13.296875 -29.707031 13.488281 -29.898438 C 13.675781 -30.050781 13.90625 -30.164062 14.171875 -30.164062 L 25.339844 -30.164062 C 26.25 -30.164062 27.050781 -29.824219 27.734375 -29.214844 C 27.886719 -29.023438 28.113281 -28.988281 28.339844 -29.101562 C 28.570312 -29.175781 28.683594 -29.367188 28.683594 -29.632812 L 28.683594 -38.144531 C 28.683594 -38.371094 28.53125 -38.558594 28.304688 -38.675781 C 28.074219 -38.75 27.847656 -38.710938 27.65625 -38.558594 Z M 27.65625 -38.558594" transform="translate(642.454 494.82)"/></g></g></g><g fill="#FFC1B2" fill-opacity=".302"><g><g><path d="M 31.226562 -28.417969 L 31.039062 -28.644531 C 30.507812 -29.175781 30.164062 -29.785156 29.9375 -30.46875 C 29.253906 -32.597656 27.847656 -34.34375 25.796875 -35.710938 C 24.65625 -36.433594 23.363281 -37.003906 21.921875 -37.382812 C 20.476562 -37.761719 18.996094 -37.953125 17.398438 -37.953125 C 15.804688 -37.953125 14.246094 -37.726562 12.765625 -37.34375 C 11.285156 -36.964844 9.953125 -36.394531 8.777344 -35.671875 C 7.179688 -34.683594 6.003906 -33.507812 5.167969 -32.101562 C 4.332031 -30.695312 3.949219 -29.175781 3.949219 -27.503906 C 3.949219 -24.3125 5.433594 -21.578125 8.472656 -19.335938 C 9.535156 -18.5 10.675781 -17.816406 11.929688 -17.210938 C 13.183594 -16.601562 14.472656 -15.992188 15.765625 -15.460938 C 16.527344 -15.082031 17.363281 -14.703125 18.199219 -14.324219 C 19.035156 -13.941406 19.792969 -13.523438 20.476562 -13.144531 C 21.160156 -12.726562 21.730469 -12.308594 22.1875 -11.890625 C 22.640625 -11.433594 22.871094 -11.015625 22.871094 -10.597656 C 22.871094 -10.066406 22.679688 -9.574219 22.300781 -9.195312 C 21.921875 -8.8125 21.425781 -8.472656 20.855469 -8.242188 C 20.285156 -8.015625 19.679688 -7.824219 18.996094 -7.710938 C 18.3125 -7.558594 17.703125 -7.523438 17.097656 -7.523438 C 16.335938 -7.523438 15.574219 -7.597656 14.742188 -7.789062 C 13.90625 -7.941406 13.183594 -8.242188 12.613281 -8.660156 C 12.460938 -8.777344 12.347656 -8.929688 12.347656 -9.117188 C 12.308594 -9.308594 12.347656 -9.460938 12.5 -9.613281 L 12.535156 -9.648438 C 12.652344 -9.839844 12.652344 -10.03125 12.574219 -10.257812 C 12.460938 -10.484375 12.269531 -10.597656 12.042969 -10.597656 L 3.648438 -10.597656 C 3.382812 -10.597656 3.191406 -10.484375 3.113281 -10.257812 C 3 -10.03125 3 -9.839844 3.152344 -9.648438 L 3.304688 -9.496094 C 3.835938 -8.890625 4.179688 -8.242188 4.40625 -7.597656 C 5.089844 -5.394531 6.457031 -3.648438 8.585938 -2.316406 C 9.726562 -1.558594 11.054688 -0.988281 12.5 -0.609375 C 13.941406 -0.191406 15.5 0 17.097656 0 C 18.996094 0 20.78125 -0.265625 22.414062 -0.796875 C 24.046875 -1.328125 25.453125 -2.050781 26.632812 -3 C 27.808594 -3.914062 28.722656 -5.054688 29.40625 -6.34375 C 30.050781 -7.636719 30.390625 -9.042969 30.390625 -10.597656 C 30.390625 -12.234375 30.011719 -13.675781 29.289062 -14.890625 C 28.570312 -16.109375 27.65625 -17.171875 26.515625 -18.082031 C 25.378906 -18.996094 24.160156 -19.753906 22.792969 -20.4375 C 21.425781 -21.121094 20.097656 -21.730469 18.804688 -22.339844 C 17.929688 -22.71875 17.058594 -23.097656 16.183594 -23.515625 C 15.308594 -23.894531 14.511719 -24.3125 13.828125 -24.769531 C 13.144531 -25.1875 12.574219 -25.644531 12.117188 -26.097656 C 11.664062 -26.554688 11.472656 -27.011719 11.472656 -27.503906 C 11.472656 -27.921875 11.625 -28.304688 12.003906 -28.683594 C 12.347656 -29.0625 12.804688 -29.367188 13.371094 -29.632812 C 13.90625 -29.859375 14.550781 -30.050781 15.273438 -30.203125 C 15.957031 -30.355469 16.679688 -30.429688 17.398438 -30.429688 C 18.234375 -30.429688 19.070312 -30.316406 19.832031 -30.164062 C 20.589844 -29.972656 21.199219 -29.707031 21.730469 -29.367188 C 21.882812 -29.253906 21.996094 -29.101562 21.996094 -28.910156 C 21.996094 -28.722656 21.957031 -28.570312 21.84375 -28.453125 L 21.84375 -28.417969 C 21.691406 -28.1875 21.691406 -28 21.804688 -27.808594 C 21.882812 -27.582031 22.074219 -27.503906 22.339844 -27.503906 L 30.734375 -27.503906 C 30.960938 -27.503906 31.152344 -27.582031 31.265625 -27.808594 C 31.34375 -28 31.34375 -28.1875 31.226562 -28.417969 Z M 31.226562 -28.417969" transform="translate(675.694 494.82)"/></g></g></g><g fill="#FFC1B2" fill-opacity=".302"><g><g><path d="M 13.144531 -3.34375 L 13.144531 -34.417969 C 13.144531 -35.332031 13.449219 -36.128906 14.054688 -36.8125 C 14.171875 -37.003906 14.171875 -37.191406 14.09375 -37.421875 C 13.980469 -37.648438 13.789062 -37.761719 13.5625 -37.761719 L 5.167969 -37.761719 C 4.902344 -37.761719 4.710938 -37.648438 4.636719 -37.421875 C 4.519531 -37.191406 4.519531 -37.003906 4.671875 -36.8125 C 5.28125 -36.128906 5.621094 -35.332031 5.621094 -34.417969 L 5.621094 -3.34375 C 5.621094 -2.429688 5.28125 -1.632812 4.671875 -0.949219 C 4.519531 -0.722656 4.519531 -0.53125 4.636719 -0.304688 C 4.710938 -0.0742188 4.902344 0 5.167969 0 L 13.5625 0 C 13.789062 0 13.980469 -0.0742188 14.09375 -0.304688 C 14.171875 -0.53125 14.171875 -0.722656 14.054688 -0.949219 C 13.753906 -1.253906 13.523438 -1.632812 13.371094 -2.050781 C 13.222656 -2.46875 13.144531 -2.886719 13.144531 -3.34375 Z M 13.144531 -3.34375" transform="translate(744.453 494.82)"/></g></g></g><g fill="#FFC1B2" fill-opacity=".302"><g><g><path d="M 35.40625 -0.949219 L 35.371094 -0.988281 C 34.761719 -1.59375 34.496094 -2.355469 34.496094 -3.265625 L 34.496094 -34.496094 C 34.496094 -35.371094 34.761719 -36.128906 35.371094 -36.773438 L 35.40625 -36.8125 C 35.519531 -37.003906 35.519531 -37.191406 35.445312 -37.421875 C 35.332031 -37.648438 35.140625 -37.761719 34.914062 -37.761719 L 26.515625 -37.761719 C 26.25 -37.761719 26.0625 -37.648438 25.984375 -37.421875 C 25.871094 -37.191406 25.871094 -37.003906 26.023438 -36.8125 L 26.0625 -36.773438 C 26.632812 -36.128906 26.933594 -35.371094 26.933594 -34.496094 L 26.933594 -15.613281 C 26.933594 -15.460938 26.859375 -15.347656 26.707031 -15.308594 C 26.554688 -15.273438 26.441406 -15.308594 26.367188 -15.460938 L 14.472656 -35.445312 C 14.171875 -35.902344 14.246094 -36.355469 14.625 -36.8125 C 14.742188 -37.003906 14.742188 -37.191406 14.664062 -37.421875 C 14.550781 -37.648438 14.359375 -37.761719 14.132812 -37.761719 L 13.105469 -37.761719 L 13.105469 -37.726562 L 13.105469 -37.761719 L 5.167969 -37.761719 C 4.902344 -37.761719 4.710938 -37.648438 4.636719 -37.421875 C 4.519531 -37.191406 4.519531 -37.003906 4.671875 -36.8125 C 5.28125 -36.128906 5.585938 -35.371094 5.585938 -34.535156 L 5.585938 -3.230469 C 5.585938 -2.355469 5.28125 -1.59375 4.671875 -0.949219 C 4.519531 -0.722656 4.519531 -0.53125 4.636719 -0.304688 C 4.710938 -0.0742188 4.902344 0 5.167969 0 L 13.5625 0 C 13.789062 0 13.980469 -0.0742188 14.09375 -0.304688 C 14.171875 -0.53125 14.171875 -0.722656 14.054688 -0.949219 L 13.980469 -1.027344 C 13.371094 -1.632812 13.105469 -2.394531 13.105469 -3.304688 L 13.105469 -22.148438 C 13.105469 -22.300781 13.144531 -22.375 13.296875 -22.414062 C 13.449219 -22.453125 13.5625 -22.414062 13.675781 -22.300781 L 25.605469 -2.28125 C 25.832031 -1.785156 25.796875 -1.328125 25.453125 -0.949219 C 25.300781 -0.722656 25.300781 -0.53125 25.414062 -0.304688 C 25.492188 -0.0742188 25.683594 0 25.949219 0 L 34.914062 0 C 35.140625 0 35.332031 -0.0742188 35.445312 -0.304688 C 35.519531 -0.53125 35.519531 -0.722656 35.40625 -0.949219 Z M 35.40625 -0.949219" transform="translate(798.358 494.82)"/></g></g></g><g fill="#FFC1B2" fill-opacity=".302"><g><g><path d="M 34.570312 -0.683594 C 34.570312 -0.835938 34.496094 -0.949219 34.382812 -1.027344 C 33.507812 -1.746094 32.9375 -2.660156 32.632812 -3.800781 L 23.554688 -35.179688 C 23.363281 -35.789062 23.476562 -36.355469 23.933594 -36.8125 C 24.046875 -37.003906 24.046875 -37.191406 23.972656 -37.421875 C 23.859375 -37.648438 23.667969 -37.761719 23.441406 -37.761719 L 13.410156 -37.761719 C 13.183594 -37.761719 12.992188 -37.648438 12.878906 -37.421875 C 12.765625 -37.191406 12.765625 -37.003906 12.917969 -36.8125 C 13.371094 -36.355469 13.488281 -35.789062 13.296875 -35.179688 L 4.253906 -3.761719 C 3.949219 -2.699219 3.34375 -1.785156 2.46875 -1.027344 C 2.355469 -0.910156 2.28125 -0.796875 2.28125 -0.683594 C 2.242188 -0.492188 2.28125 -0.34375 2.394531 -0.191406 C 2.507812 -0.0390625 2.660156 0 2.886719 0 L 11.699219 0 C 11.929688 0 12.117188 -0.0742188 12.195312 -0.304688 C 12.269531 -0.53125 12.269531 -0.722656 12.117188 -0.910156 C 11.664062 -1.367188 11.550781 -1.9375 11.699219 -2.546875 L 12.878906 -6.496094 C 12.992188 -6.914062 13.222656 -7.257812 13.5625 -7.484375 C 13.867188 -7.710938 14.246094 -7.863281 14.703125 -7.863281 L 22.1875 -7.863281 C 22.605469 -7.863281 22.984375 -7.710938 23.328125 -7.484375 C 23.628906 -7.257812 23.859375 -6.914062 24.011719 -6.496094 L 25.148438 -2.546875 C 25.300781 -1.9375 25.148438 -1.40625 24.769531 -0.949219 L 24.769531 -0.910156 C 24.617188 -0.683594 24.617188 -0.492188 24.730469 -0.304688 C 24.808594 -0.0742188 24.996094 0 25.265625 0 L 34 0 C 34.191406 0 34.34375 -0.0390625 34.457031 -0.191406 C 34.570312 -0.34375 34.609375 -0.492188 34.570312 -0.683594 Z M 20.894531 -15.386719 L 15.992188 -15.386719 C 15.84375 -15.386719 15.726562 -15.425781 15.652344 -15.539062 C 15.539062 -15.652344 15.5 -15.804688 15.574219 -15.957031 L 18.046875 -24.429688 C 18.082031 -24.617188 18.199219 -24.730469 18.425781 -24.730469 C 18.652344 -24.730469 18.765625 -24.617188 18.84375 -24.429688 L 21.273438 -15.957031 C 21.3125 -15.804688 21.273438 -15.652344 21.199219 -15.539062 C 21.121094 -15.425781 21.007812 -15.386719 20.894531 -15.386719 Z M 20.894531 -15.386719" transform="translate(838.436 494.82)"/></g></g></g><g fill="#FFC1B2" fill-opacity=".302"><g><g><path d="M 27.621094 -8.394531 L 27.164062 -8.015625 C 26.746094 -7.636719 26.289062 -7.484375 25.796875 -7.484375 L 14.019531 -7.484375 C 13.753906 -7.484375 13.523438 -7.558594 13.371094 -7.710938 C 13.183594 -7.863281 13.105469 -8.09375 13.105469 -8.394531 L 13.105469 -34.382812 C 13.105469 -35.253906 13.410156 -36.054688 14.019531 -36.738281 L 14.054688 -36.773438 C 14.171875 -36.964844 14.171875 -37.15625 14.09375 -37.382812 C 13.980469 -37.574219 13.789062 -37.6875 13.5625 -37.6875 L 5.167969 -37.6875 C 4.902344 -37.6875 4.710938 -37.574219 4.636719 -37.382812 C 4.519531 -37.15625 4.519531 -36.964844 4.671875 -36.773438 C 5.28125 -36.089844 5.585938 -35.292969 5.585938 -34.417969 L 5.585938 -0.835938 C 5.585938 -0.570312 5.660156 -0.34375 5.851562 -0.191406 C 6.003906 0 6.230469 0.0742188 6.496094 0.0742188 L 25.796875 0.0742188 C 26.289062 0.0742188 26.746094 0.265625 27.164062 0.609375 L 27.621094 0.988281 C 27.808594 1.140625 28 1.140625 28.226562 1.027344 C 28.417969 0.949219 28.53125 0.761719 28.53125 0.492188 L 28.53125 -7.902344 C 28.53125 -8.128906 28.417969 -8.320312 28.226562 -8.433594 C 28 -8.511719 27.808594 -8.511719 27.621094 -8.394531 Z M 27.621094 -8.394531" transform="translate(875.322 494.82)"/></g></g></g><g fill="#FFC1B2" fill-opacity=".302"><g><g><path d="M 27.65625 -38.027344 C 27.011719 -37.421875 26.25 -37.15625 25.414062 -37.15625 L 5.167969 -37.15625 C 4.902344 -37.15625 4.710938 -37.039062 4.636719 -36.8125 C 4.519531 -36.585938 4.519531 -36.394531 4.671875 -36.203125 L 4.785156 -36.089844 C 5.394531 -35.40625 5.699219 -34.609375 5.699219 -33.699219 L 5.699219 -2.847656 C 5.699219 -2.394531 5.621094 -1.976562 5.46875 -1.558594 C 5.320312 -1.140625 5.089844 -0.761719 4.785156 -0.457031 L 4.671875 -0.34375 C 4.519531 -0.113281 4.519531 0.0742188 4.636719 0.304688 C 4.710938 0.53125 4.902344 0.609375 5.167969 0.609375 L 25.414062 0.609375 C 26.25 0.609375 27.011719 0.910156 27.65625 1.480469 C 27.847656 1.671875 28.074219 1.710938 28.304688 1.59375 C 28.53125 1.519531 28.683594 1.328125 28.683594 1.027344 L 28.683594 -7.445312 C 28.683594 -7.675781 28.570312 -7.863281 28.339844 -7.976562 C 28.113281 -8.054688 27.886719 -8.015625 27.734375 -7.863281 C 27.050781 -7.21875 26.25 -6.914062 25.339844 -6.914062 L 14.171875 -6.914062 C 13.90625 -6.914062 13.675781 -6.992188 13.488281 -7.179688 C 13.296875 -7.332031 13.222656 -7.558594 13.222656 -7.863281 L 13.222656 -13.5625 C 13.222656 -13.828125 13.296875 -14.054688 13.488281 -14.246094 C 13.675781 -14.398438 13.90625 -14.511719 14.171875 -14.511719 L 17.515625 -14.511719 C 18.425781 -14.511719 19.222656 -14.171875 19.90625 -13.5625 C 20.097656 -13.410156 20.285156 -13.410156 20.515625 -13.523438 C 20.742188 -13.636719 20.855469 -13.828125 20.855469 -14.054688 L 20.855469 -22.492188 C 20.855469 -22.71875 20.742188 -22.871094 20.515625 -22.984375 C 20.285156 -23.097656 20.097656 -23.097656 19.90625 -22.984375 C 19.222656 -22.339844 18.425781 -22.035156 17.515625 -22.035156 L 14.171875 -22.035156 C 13.90625 -22.035156 13.675781 -22.109375 13.488281 -22.300781 C 13.296875 -22.453125 13.222656 -22.679688 13.222656 -22.984375 L 13.222656 -28.683594 C 13.222656 -28.949219 13.296875 -29.175781 13.488281 -29.367188 C 13.675781 -29.519531 13.90625 -29.632812 14.171875 -29.632812 L 25.339844 -29.632812 C 26.25 -29.632812 27.050781 -29.289062 27.734375 -28.683594 C 27.886719 -28.492188 28.113281 -28.453125 28.339844 -28.570312 C 28.570312 -28.644531 28.683594 -28.835938 28.683594 -29.101562 L 28.683594 -37.609375 C 28.683594 -37.839844 28.53125 -38.027344 28.304688 -38.144531 C 28.074219 -38.21875 27.847656 -38.179688 27.65625 -38.027344 Z M 27.65625 -38.027344" transform="translate(538.138 547.991)"/></g></g></g><g fill="#FFC1B2" fill-opacity=".302"><g><g><path d="M 35.40625 -0.949219 L 35.371094 -0.988281 C 34.761719 -1.59375 34.496094 -2.355469 34.496094 -3.265625 L 34.496094 -34.496094 C 34.496094 -35.371094 34.761719 -36.128906 35.371094 -36.773438 L 35.40625 -36.8125 C 35.519531 -37.003906 35.519531 -37.191406 35.445312 -37.421875 C 35.332031 -37.648438 35.140625 -37.761719 34.914062 -37.761719 L 26.515625 -37.761719 C 26.25 -37.761719 26.0625 -37.648438 25.984375 -37.421875 C 25.871094 -37.191406 25.871094 -37.003906 26.023438 -36.8125 L 26.0625 -36.773438 C 26.632812 -36.128906 26.933594 -35.371094 26.933594 -34.496094 L 26.933594 -15.613281 C 26.933594 -15.460938 26.859375 -15.347656 26.707031 -15.308594 C 26.554688 -15.273438 26.441406 -15.308594 26.367188 -15.460938 L 14.472656 -35.445312 C 14.171875 -35.902344 14.246094 -36.355469 14.625 -36.8125 C 14.742188 -37.003906 14.742188 -37.191406 14.664062 -37.421875 C 14.550781 -37.648438 14.359375 -37.761719 14.132812 -37.761719 L 13.105469 -37.761719 L 13.105469 -37.726562 L 13.105469 -37.761719 L 5.167969 -37.761719 C 4.902344 -37.761719 4.710938 -37.648438 4.636719 -37.421875 C 4.519531 -37.191406 4.519531 -37.003906 4.671875 -36.8125 C 5.28125 -36.128906 5.585938 -35.371094 5.585938 -34.535156 L 5.585938 -3.230469 C 5.585938 -2.355469 5.28125 -1.59375 4.671875 -0.949219 C 4.519531 -0.722656 4.519531 -0.53125 4.636719 -0.304688 C 4.710938 -0.0742188 4.902344 0 5.167969 0 L 13.5625 0 C 13.789062 0 13.980469 -0.0742188 14.09375 -0.304688 C 14.171875 -0.53125 14.171875 -0.722656 14.054688 -0.949219 L 13.980469 -1.027344 C 13.371094 -1.632812 13.105469 -2.394531 13.105469 -3.304688 L 13.105469 -22.148438 C 13.105469 -22.300781 13.144531 -22.375 13.296875 -22.414062 C 13.449219 -22.453125 13.5625 -22.414062 13.675781 -22.300781 L 25.605469 -2.28125 C 25.832031 -1.785156 25.796875 -1.328125 25.453125 -0.949219 C 25.300781 -0.722656 25.300781 -0.53125 25.414062 -0.304688 C 25.492188 -0.0742188 25.683594 0 25.949219 0 L 34.914062 0 C 35.140625 0 35.332031 -0.0742188 35.445312 -0.304688 C 35.519531 -0.53125 35.519531 -0.722656 35.40625 -0.949219 Z M 35.40625 -0.949219" transform="translate(571.377 547.991)"/></g></g></g><g fill="#FFC1B2" fill-opacity=".302"><g><g><path d="M 26.328125 -19.035156 L 21.804688 -19.035156 C 20.933594 -19.035156 20.171875 -19.300781 19.566406 -19.90625 L 19.414062 -20.058594 C 19.183594 -20.171875 18.996094 -20.171875 18.765625 -20.097656 C 18.539062 -19.984375 18.464844 -19.792969 18.464844 -19.566406 L 18.464844 -11.132812 C 18.464844 -10.902344 18.539062 -10.714844 18.765625 -10.597656 C 18.996094 -10.484375 19.183594 -10.484375 19.414062 -10.636719 L 19.832031 -11.054688 C 20.136719 -11.359375 20.515625 -11.511719 20.972656 -11.511719 C 21.007812 -11.511719 21.046875 -11.472656 21.046875 -11.398438 L 21.046875 -8.433594 C 21.046875 -8.167969 20.933594 -7.941406 20.78125 -7.789062 C 20.628906 -7.597656 20.402344 -7.523438 20.136719 -7.523438 C 18.082031 -7.523438 16.375 -7.902344 15.042969 -8.699219 C 13.714844 -9.460938 12.652344 -10.449219 11.890625 -11.625 C 11.132812 -12.765625 10.5625 -14.019531 10.257812 -15.308594 C 9.953125 -16.601562 9.800781 -17.816406 9.800781 -18.882812 C 9.800781 -20.402344 10.03125 -21.84375 10.484375 -23.210938 C 10.941406 -24.578125 11.625 -25.796875 12.460938 -26.859375 C 14.285156 -29.0625 16.867188 -30.203125 20.136719 -30.203125 L 23.933594 -30.203125 C 24.769531 -30.203125 25.53125 -29.898438 26.175781 -29.367188 C 26.328125 -29.175781 26.515625 -29.140625 26.746094 -29.214844 C 26.972656 -29.289062 27.085938 -29.480469 27.085938 -29.746094 L 27.085938 -38.257812 C 27.085938 -38.484375 26.972656 -38.675781 26.785156 -38.789062 C 26.554688 -38.863281 26.367188 -38.863281 26.175781 -38.75 L 26.023438 -38.597656 C 25.378906 -38.027344 24.617188 -37.761719 23.78125 -37.761719 L 20.136719 -37.761719 C 17.363281 -37.761719 14.855469 -37.230469 12.574219 -36.203125 C 10.296875 -35.140625 8.359375 -33.621094 6.6875 -31.644531 C 5.242188 -29.9375 4.140625 -28 3.382812 -25.796875 C 2.621094 -23.59375 2.28125 -21.3125 2.28125 -18.882812 C 2.28125 -16.527344 2.660156 -14.207031 3.417969 -11.96875 C 4.179688 -9.6875 5.28125 -7.675781 6.800781 -5.925781 C 8.320312 -4.140625 10.179688 -2.699219 12.386719 -1.632812 C 14.589844 -0.53125 17.171875 0 20.136719 0 L 26.328125 0 C 26.933594 0 27.46875 -0.191406 27.921875 -0.644531 C 28.339844 -1.0625 28.570312 -1.59375 28.570312 -2.242188 L 28.570312 -16.792969 C 28.570312 -17.398438 28.339844 -17.894531 27.921875 -18.347656 C 27.46875 -18.804688 26.933594 -19.035156 26.328125 -19.035156 Z M 26.328125 -19.035156" transform="translate(611.455 547.991)"/></g></g></g><g fill="#FFC1B2" fill-opacity=".302"><g><g><path d="M 13.144531 -3.34375 L 13.144531 -34.417969 C 13.144531 -35.332031 13.449219 -36.128906 14.054688 -36.8125 C 14.171875 -37.003906 14.171875 -37.191406 14.09375 -37.421875 C 13.980469 -37.648438 13.789062 -37.761719 13.5625 -37.761719 L 5.167969 -37.761719 C 4.902344 -37.761719 4.710938 -37.648438 4.636719 -37.421875 C 4.519531 -37.191406 4.519531 -37.003906 4.671875 -36.8125 C 5.28125 -36.128906 5.621094 -35.332031 5.621094 -34.417969 L 5.621094 -3.34375 C 5.621094 -2.429688 5.28125 -1.632812 4.671875 -0.949219 C 4.519531 -0.722656 4.519531 -0.53125 4.636719 -0.304688 C 4.710938 -0.0742188 4.902344 0 5.167969 0 L 13.5625 0 C 13.789062 0 13.980469 -0.0742188 14.09375 -0.304688 C 14.171875 -0.53125 14.171875 -0.722656 14.054688 -0.949219 C 13.753906 -1.253906 13.523438 -1.632812 13.371094 -2.050781 C 13.222656 -2.46875 13.144531 -2.886719 13.144531 -3.34375 Z M 13.144531 -3.34375" transform="translate(644.619 547.991)"/></g></g></g><g fill="#FFC1B2" fill-opacity=".302"><g><g><path d="M 31.078125 -0.949219 L 30.507812 -1.40625 C 29.898438 -1.898438 29.367188 -2.507812 28.949219 -3.191406 L 24.238281 -10.714844 C 24.085938 -10.941406 24.011719 -11.207031 24.085938 -11.511719 C 24.160156 -11.777344 24.3125 -12.003906 24.578125 -12.195312 C 25.53125 -12.878906 26.367188 -13.636719 27.050781 -14.511719 C 28.074219 -15.765625 28.871094 -17.210938 29.40625 -18.804688 C 29.9375 -20.402344 30.242188 -22.074219 30.242188 -23.820312 C 30.242188 -25.566406 29.9375 -27.277344 29.40625 -28.871094 C 28.871094 -30.46875 28.074219 -31.914062 27.050781 -33.203125 C 25.832031 -34.648438 24.351562 -35.789062 22.679688 -36.585938 C 20.972656 -37.34375 19.109375 -37.761719 17.132812 -37.761719 L 5.128906 -37.761719 C 4.863281 -37.761719 4.671875 -37.648438 4.597656 -37.421875 C 4.484375 -37.191406 4.519531 -37.003906 4.710938 -36.8125 C 5.320312 -36.128906 5.660156 -35.332031 5.660156 -34.417969 L 5.660156 -3.265625 C 5.660156 -2.394531 5.355469 -1.632812 4.785156 -0.988281 C 4.558594 -0.761719 4.519531 -0.570312 4.636719 -0.34375 C 4.710938 -0.113281 4.902344 0 5.203125 0 L 13.714844 0 C 13.941406 0 14.132812 -0.0742188 14.207031 -0.304688 C 14.285156 -0.53125 14.285156 -0.722656 14.132812 -0.949219 C 13.488281 -1.632812 13.183594 -2.394531 13.183594 -3.304688 L 13.183594 -8.851562 C 13.183594 -9.15625 13.257812 -9.421875 13.488281 -9.648438 C 13.714844 -9.878906 13.980469 -9.992188 14.285156 -9.992188 L 15.195312 -9.992188 C 15.574219 -9.992188 15.917969 -9.800781 16.144531 -9.460938 L 20.820312 -1.9375 C 21.007812 -1.59375 20.972656 -1.292969 20.742188 -0.988281 L 20.703125 -0.949219 C 20.554688 -0.722656 20.554688 -0.53125 20.667969 -0.304688 C 20.742188 -0.0742188 20.933594 0 21.199219 0 L 30.808594 0 C 31.078125 0 31.226562 -0.113281 31.304688 -0.34375 C 31.378906 -0.570312 31.304688 -0.761719 31.078125 -0.949219 Z M 21.238281 -19.300781 C 20.285156 -18.082031 18.917969 -17.515625 17.132812 -17.515625 L 14.285156 -17.515625 C 13.980469 -17.515625 13.714844 -17.589844 13.488281 -17.816406 C 13.257812 -18.046875 13.183594 -18.3125 13.183594 -18.617188 L 13.183594 -29.101562 C 13.183594 -29.40625 13.257812 -29.671875 13.488281 -29.898438 C 13.714844 -30.125 13.980469 -30.242188 14.285156 -30.242188 L 17.132812 -30.242188 C 18.5 -30.242188 19.527344 -29.9375 20.285156 -29.328125 C 21.046875 -28.722656 21.578125 -28.035156 21.957031 -27.277344 C 22.300781 -26.515625 22.527344 -25.796875 22.605469 -25.113281 C 22.679688 -24.429688 22.71875 -23.972656 22.71875 -23.820312 C 22.71875 -22.910156 22.566406 -22.074219 22.339844 -21.3125 C 22.074219 -20.554688 21.691406 -19.867188 21.238281 -19.300781 Z M 21.238281 -19.300781" transform="translate(769.942 547.991)"/></g></g></g><g fill="#FFC1B2" fill-opacity=".302"><g><g><path d="M 26.097656 -39.664062 C 25.453125 -39.054688 24.695312 -38.789062 23.859375 -38.789062 L 20.136719 -38.789062 C 17.363281 -38.789062 14.855469 -38.257812 12.574219 -37.230469 C 10.296875 -36.203125 8.359375 -34.683594 6.6875 -32.710938 C 5.242188 -30.960938 4.140625 -29.023438 3.382812 -26.820312 C 2.621094 -24.617188 2.28125 -22.339844 2.28125 -19.90625 C 2.28125 -17.550781 2.660156 -15.234375 3.417969 -12.992188 C 4.179688 -10.714844 5.28125 -8.699219 6.800781 -6.953125 C 8.320312 -5.167969 10.179688 -3.722656 12.386719 -2.660156 C 14.589844 -1.558594 17.171875 -1.027344 20.136719 -1.027344 L 23.859375 -1.027344 C 24.695312 -1.027344 25.453125 -0.722656 26.097656 -0.152344 C 26.289062 0.0390625 26.515625 0.0742188 26.746094 -0.0390625 C 26.972656 -0.113281 27.085938 -0.304688 27.085938 -0.609375 L 27.085938 -9.078125 C 27.085938 -9.308594 26.972656 -9.496094 26.746094 -9.613281 C 26.515625 -9.6875 26.328125 -9.648438 26.175781 -9.496094 C 25.453125 -8.851562 24.65625 -8.546875 23.78125 -8.546875 L 20.136719 -8.546875 C 18.082031 -8.546875 16.375 -8.929688 15.042969 -9.726562 C 13.714844 -10.484375 12.652344 -11.472656 11.890625 -12.652344 C 11.132812 -13.789062 10.5625 -15.042969 10.257812 -16.335938 C 9.953125 -17.628906 9.800781 -18.84375 9.800781 -19.90625 C 9.800781 -21.425781 10.03125 -22.871094 10.484375 -24.277344 C 10.941406 -25.644531 11.625 -26.859375 12.460938 -27.886719 C 14.324219 -30.125 16.867188 -31.265625 20.136719 -31.265625 L 23.78125 -31.265625 C 24.65625 -31.265625 25.453125 -30.925781 26.175781 -30.316406 C 26.328125 -30.125 26.515625 -30.089844 26.746094 -30.203125 C 26.972656 -30.277344 27.085938 -30.46875 27.085938 -30.734375 L 27.085938 -39.246094 C 27.085938 -39.472656 26.972656 -39.664062 26.746094 -39.777344 C 26.515625 -39.851562 26.289062 -39.8125 26.097656 -39.664062 Z M 26.097656 -39.664062" transform="translate(523.256 601.163)"/></g></g></g><g fill="#FFC1B2" fill-opacity=".302"><g><g><path d="M 28.722656 -31.835938 C 27.277344 -33.734375 25.566406 -35.179688 23.667969 -36.203125 C 21.730469 -37.191406 19.71875 -37.726562 17.589844 -37.726562 C 15.460938 -37.726562 13.410156 -37.191406 11.472656 -36.203125 C 9.535156 -35.179688 7.863281 -33.734375 6.421875 -31.835938 C 5.054688 -30.050781 4.027344 -28.035156 3.34375 -25.832031 C 2.621094 -23.628906 2.28125 -21.273438 2.28125 -18.84375 C 2.28125 -16.410156 2.621094 -14.054688 3.34375 -11.851562 C 4.027344 -9.613281 5.054688 -7.636719 6.421875 -5.886719 C 7.863281 -3.988281 9.535156 -2.507812 11.472656 -1.519531 C 13.410156 -0.492188 15.460938 0 17.589844 0 C 19.71875 0 21.730469 -0.492188 23.667969 -1.519531 C 25.566406 -2.507812 27.277344 -3.988281 28.722656 -5.886719 C 30.089844 -7.636719 31.113281 -9.613281 31.835938 -11.851562 C 32.519531 -14.054688 32.898438 -16.410156 32.898438 -18.84375 C 32.898438 -21.273438 32.519531 -23.628906 31.835938 -25.832031 C 31.113281 -28.035156 30.089844 -30.050781 28.722656 -31.835938 Z M 17.589844 -7.523438 C 16.527344 -7.523438 15.5 -7.824219 14.589844 -8.433594 C 13.636719 -9.042969 12.804688 -9.839844 12.117188 -10.867188 C 11.398438 -11.890625 10.828125 -13.105469 10.410156 -14.472656 C 9.992188 -15.84375 9.800781 -17.285156 9.800781 -18.84375 C 9.800781 -20.363281 9.992188 -21.84375 10.410156 -23.210938 C 10.828125 -24.578125 11.398438 -25.757812 12.117188 -26.820312 C 12.804688 -27.847656 13.636719 -28.683594 14.589844 -29.289062 C 15.5 -29.898438 16.527344 -30.203125 17.589844 -30.203125 C 18.652344 -30.203125 19.640625 -29.898438 20.589844 -29.289062 C 21.503906 -28.683594 22.339844 -27.847656 23.023438 -26.820312 C 23.707031 -25.757812 24.277344 -24.578125 24.695312 -23.210938 C 25.113281 -21.84375 25.339844 -20.363281 25.339844 -18.84375 C 25.339844 -17.285156 25.113281 -15.84375 24.695312 -14.472656 C 24.277344 -13.105469 23.707031 -11.890625 23.023438 -10.867188 C 22.339844 -9.839844 21.503906 -9.042969 20.589844 -8.433594 C 19.640625 -7.824219 18.652344 -7.523438 17.589844 -7.523438 Z M 17.589844 -7.523438" transform="translate(554.938 601.163)"/></g></g></g><g fill="#FFC1B2" fill-opacity=".302"><g><g><path d="M 31.226562 -28.417969 L 31.039062 -28.644531 C 30.507812 -29.175781 30.164062 -29.785156 29.9375 -30.46875 C 29.253906 -32.597656 27.847656 -34.34375 25.796875 -35.710938 C 24.65625 -36.433594 23.363281 -37.003906 21.921875 -37.382812 C 20.476562 -37.761719 18.996094 -37.953125 17.398438 -37.953125 C 15.804688 -37.953125 14.246094 -37.726562 12.765625 -37.34375 C 11.285156 -36.964844 9.953125 -36.394531 8.777344 -35.671875 C 7.179688 -34.683594 6.003906 -33.507812 5.167969 -32.101562 C 4.332031 -30.695312 3.949219 -29.175781 3.949219 -27.503906 C 3.949219 -24.3125 5.433594 -21.578125 8.472656 -19.335938 C 9.535156 -18.5 10.675781 -17.816406 11.929688 -17.210938 C 13.183594 -16.601562 14.472656 -15.992188 15.765625 -15.460938 C 16.527344 -15.082031 17.363281 -14.703125 18.199219 -14.324219 C 19.035156 -13.941406 19.792969 -13.523438 20.476562 -13.144531 C 21.160156 -12.726562 21.730469 -12.308594 22.1875 -11.890625 C 22.640625 -11.433594 22.871094 -11.015625 22.871094 -10.597656 C 22.871094 -10.066406 22.679688 -9.574219 22.300781 -9.195312 C 21.921875 -8.8125 21.425781 -8.472656 20.855469 -8.242188 C 20.285156 -8.015625 19.679688 -7.824219 18.996094 -7.710938 C 18.3125 -7.558594 17.703125 -7.523438 17.097656 -7.523438 C 16.335938 -7.523438 15.574219 -7.597656 14.742188 -7.789062 C 13.90625 -7.941406 13.183594 -8.242188 12.613281 -8.660156 C 12.460938 -8.777344 12.347656 -8.929688 12.347656 -9.117188 C 12.308594 -9.308594 12.347656 -9.460938 12.5 -9.613281 L 12.535156 -9.648438 C 12.652344 -9.839844 12.652344 -10.03125 12.574219 -10.257812 C 12.460938 -10.484375 12.269531 -10.597656 12.042969 -10.597656 L 3.648438 -10.597656 C 3.382812 -10.597656 3.191406 -10.484375 3.113281 -10.257812 C 3 -10.03125 3 -9.839844 3.152344 -9.648438 L 3.304688 -9.496094 C 3.835938 -8.890625 4.179688 -8.242188 4.40625 -7.597656 C 5.089844 -5.394531 6.457031 -3.648438 8.585938 -2.316406 C 9.726562 -1.558594 11.054688 -0.988281 12.5 -0.609375 C 13.941406 -0.191406 15.5 0 17.097656 0 C 18.996094 0 20.78125 -0.265625 22.414062 -0.796875 C 24.046875 -1.328125 25.453125 -2.050781 26.632812 -3 C 27.808594 -3.914062 28.722656 -5.054688 29.40625 -6.34375 C 30.050781 -7.636719 30.390625 -9.042969 30.390625 -10.597656 C 30.390625 -12.234375 30.011719 -13.675781 29.289062 -14.890625 C 28.570312 -16.109375 27.65625 -17.171875 26.515625 -18.082031 C 25.378906 -18.996094 24.160156 -19.753906 22.792969 -20.4375 C 21.425781 -21.121094 20.097656 -21.730469 18.804688 -22.339844 C 17.929688 -22.71875 17.058594 -23.097656 16.183594 -23.515625 C 15.308594 -23.894531 14.511719 -24.3125 13.828125 -24.769531 C 13.144531 -25.1875 12.574219 -25.644531 12.117188 -26.097656 C 11.664062 -26.554688 11.472656 -27.011719 11.472656 -27.503906 C 11.472656 -27.921875 11.625 -28.304688 12.003906 -28.683594 C 12.347656 -29.0625 12.804688 -29.367188 13.371094 -29.632812 C 13.90625 -29.859375 14.550781 -30.050781 15.273438 -30.203125 C 15.957031 -30.355469 16.679688 -30.429688 17.398438 -30.429688 C 18.234375 -30.429688 19.070312 -30.316406 19.832031 -30.164062 C 20.589844 -29.972656 21.199219 -29.707031 21.730469 -29.367188 C 21.882812 -29.253906 21.996094 -29.101562 21.996094 -28.910156 C 21.996094 -28.722656 21.957031 -28.570312 21.84375 -28.453125 L 21.84375 -28.417969 C 21.691406 -28.1875 21.691406 -28 21.804688 -27.808594 C 21.882812 -27.582031 22.074219 -27.503906 22.339844 -27.503906 L 30.734375 -27.503906 C 30.960938 -27.503906 31.152344 -27.582031 31.265625 -27.808594 C 31.34375 -28 31.34375 -28.1875 31.226562 -28.417969 Z M 31.226562 -28.417969" transform="translate(630.192 601.163)"/></g></g></g><g fill="#FFC1B2" fill-opacity=".302"><g><g><path d="M 32.558594 -37.726562 L 24.160156 -37.726562 C 23.894531 -37.726562 23.707031 -37.609375 23.628906 -37.421875 C 23.515625 -37.191406 23.515625 -37.003906 23.667969 -36.8125 C 24.277344 -36.089844 24.617188 -35.292969 24.617188 -34.417969 L 24.617188 -12.269531 C 24.617188 -11.09375 24.3125 -10.179688 23.78125 -9.574219 C 23.25 -8.929688 22.640625 -8.472656 21.957031 -8.167969 C 21.273438 -7.863281 20.628906 -7.675781 20.019531 -7.597656 C 19.414062 -7.523438 19.035156 -7.523438 18.882812 -7.523438 C 18.730469 -7.523438 18.3125 -7.523438 17.703125 -7.597656 C 17.097656 -7.675781 16.449219 -7.863281 15.765625 -8.167969 C 15.082031 -8.472656 14.472656 -8.929688 13.941406 -9.574219 C 13.410156 -10.179688 13.144531 -11.09375 13.144531 -12.269531 L 13.144531 -34.417969 C 13.144531 -35.332031 13.449219 -36.128906 14.054688 -36.8125 C 14.171875 -37.003906 14.171875 -37.191406 14.09375 -37.421875 C 13.980469 -37.609375 13.789062 -37.726562 13.5625 -37.726562 L 5.167969 -37.726562 C 4.902344 -37.726562 4.710938 -37.609375 4.636719 -37.421875 C 4.519531 -37.191406 4.519531 -37.003906 4.671875 -36.8125 C 5.28125 -36.128906 5.585938 -35.332031 5.585938 -34.417969 L 5.585938 -12.269531 C 5.585938 -10.371094 5.964844 -8.625 6.722656 -7.027344 C 7.484375 -5.433594 8.546875 -4.066406 9.992188 -2.925781 C 11.207031 -1.9375 12.574219 -1.214844 14.09375 -0.722656 C 15.613281 -0.191406 17.210938 0.0390625 18.882812 0.0390625 C 20.554688 0.0390625 22.109375 -0.191406 23.628906 -0.722656 C 25.148438 -1.214844 26.515625 -1.9375 27.734375 -2.925781 C 29.175781 -4.066406 30.242188 -5.433594 31 -7.027344 C 31.761719 -8.625 32.140625 -10.371094 32.140625 -12.269531 L 32.140625 -34.417969 C 32.140625 -35.253906 32.445312 -36.054688 33.050781 -36.8125 C 33.203125 -37.003906 33.203125 -37.191406 33.089844 -37.421875 C 32.976562 -37.609375 32.785156 -37.726562 32.558594 -37.726562 Z M 32.558594 -37.726562" transform="translate(664.572 601.163)"/></g></g></g><g fill="#FFC1B2" fill-opacity=".302"><g><g><path d="M 27.621094 -8.394531 L 27.164062 -8.015625 C 26.746094 -7.636719 26.289062 -7.484375 25.796875 -7.484375 L 14.019531 -7.484375 C 13.753906 -7.484375 13.523438 -7.558594 13.371094 -7.710938 C 13.183594 -7.863281 13.105469 -8.09375 13.105469 -8.394531 L 13.105469 -34.382812 C 13.105469 -35.253906 13.410156 -36.054688 14.019531 -36.738281 L 14.054688 -36.773438 C 14.171875 -36.964844 14.171875 -37.15625 14.09375 -37.382812 C 13.980469 -37.574219 13.789062 -37.6875 13.5625 -37.6875 L 5.167969 -37.6875 C 4.902344 -37.6875 4.710938 -37.574219 4.636719 -37.382812 C 4.519531 -37.15625 4.519531 -36.964844 4.671875 -36.773438 C 5.28125 -36.089844 5.585938 -35.292969 5.585938 -34.417969 L 5.585938 -0.835938 C 5.585938 -0.570312 5.660156 -0.34375 5.851562 -0.191406 C 6.003906 0 6.230469 0.0742188 6.496094 0.0742188 L 25.796875 0.0742188 C 26.289062 0.0742188 26.746094 0.265625 27.164062 0.609375 L 27.621094 0.988281 C 27.808594 1.140625 28 1.140625 28.226562 1.027344 C 28.417969 0.949219 28.53125 0.761719 28.53125 0.492188 L 28.53125 -7.902344 C 28.53125 -8.128906 28.417969 -8.320312 28.226562 -8.433594 C 28 -8.511719 27.808594 -8.511719 27.621094 -8.394531 Z M 27.621094 -8.394531" transform="translate(702.332 601.163)"/></g></g></g><g fill="#FFC1B2" fill-opacity=".302"><g><g><path d="M 29.746094 -38.710938 L 29.707031 -38.675781 C 29.023438 -38.066406 28.265625 -37.761719 27.390625 -37.761719 L 7.863281 -37.761719 C 6.953125 -37.761719 6.191406 -38.066406 5.507812 -38.675781 L 5.507812 -38.710938 C 5.28125 -38.828125 5.089844 -38.828125 4.863281 -38.710938 C 4.636719 -38.597656 4.558594 -38.445312 4.558594 -38.21875 L 4.558594 -29.785156 C 4.558594 -29.519531 4.636719 -29.328125 4.863281 -29.253906 C 5.089844 -29.140625 5.28125 -29.140625 5.507812 -29.289062 C 6.191406 -29.898438 6.953125 -30.242188 7.863281 -30.242188 L 13.105469 -30.242188 C 13.296875 -30.242188 13.488281 -30.164062 13.636719 -30.011719 C 13.789062 -29.859375 13.867188 -29.671875 13.867188 -29.480469 L 13.867188 -3.34375 C 13.867188 -2.429688 13.5625 -1.632812 12.953125 -0.988281 L 12.917969 -0.949219 C 12.765625 -0.722656 12.765625 -0.53125 12.878906 -0.304688 C 12.953125 -0.0742188 13.144531 0 13.410156 0 L 21.84375 0 C 22.074219 0 22.222656 -0.0742188 22.339844 -0.304688 C 22.453125 -0.53125 22.453125 -0.722656 22.339844 -0.949219 C 21.691406 -1.632812 21.390625 -2.394531 21.390625 -3.304688 L 21.390625 -29.480469 C 21.390625 -29.671875 21.464844 -29.859375 21.617188 -30.011719 C 21.769531 -30.164062 21.921875 -30.242188 22.148438 -30.242188 L 27.390625 -30.242188 C 28.304688 -30.242188 29.0625 -29.898438 29.707031 -29.289062 L 29.746094 -29.289062 C 29.9375 -29.140625 30.125 -29.140625 30.355469 -29.253906 C 30.582031 -29.328125 30.695312 -29.519531 30.695312 -29.785156 L 30.695312 -38.21875 C 30.695312 -38.445312 30.582031 -38.597656 30.355469 -38.710938 C 30.125 -38.828125 29.9375 -38.828125 29.746094 -38.710938 Z M 29.746094 -38.710938" transform="translate(733.178 601.163)"/></g></g></g><g fill="#FFC1B2" fill-opacity=".302"><g><g><path d="M 34.570312 -0.683594 C 34.570312 -0.835938 34.496094 -0.949219 34.382812 -1.027344 C 33.507812 -1.746094 32.9375 -2.660156 32.632812 -3.800781 L 23.554688 -35.179688 C 23.363281 -35.789062 23.476562 -36.355469 23.933594 -36.8125 C 24.046875 -37.003906 24.046875 -37.191406 23.972656 -37.421875 C 23.859375 -37.648438 23.667969 -37.761719 23.441406 -37.761719 L 13.410156 -37.761719 C 13.183594 -37.761719 12.992188 -37.648438 12.878906 -37.421875 C 12.765625 -37.191406 12.765625 -37.003906 12.917969 -36.8125 C 13.371094 -36.355469 13.488281 -35.789062 13.296875 -35.179688 L 4.253906 -3.761719 C 3.949219 -2.699219 3.34375 -1.785156 2.46875 -1.027344 C 2.355469 -0.910156 2.28125 -0.796875 2.28125 -0.683594 C 2.242188 -0.492188 2.28125 -0.34375 2.394531 -0.191406 C 2.507812 -0.0390625 2.660156 0 2.886719 0 L 11.699219 0 C 11.929688 0 12.117188 -0.0742188 12.195312 -0.304688 C 12.269531 -0.53125 12.269531 -0.722656 12.117188 -0.910156 C 11.664062 -1.367188 11.550781 -1.9375 11.699219 -2.546875 L 12.878906 -6.496094 C 12.992188 -6.914062 13.222656 -7.257812 13.5625 -7.484375 C 13.867188 -7.710938 14.246094 -7.863281 14.703125 -7.863281 L 22.1875 -7.863281 C 22.605469 -7.863281 22.984375 -7.710938 23.328125 -7.484375 C 23.628906 -7.257812 23.859375 -6.914062 24.011719 -6.496094 L 25.148438 -2.546875 C 25.300781 -1.9375 25.148438 -1.40625 24.769531 -0.949219 L 24.769531 -0.910156 C 24.617188 -0.683594 24.617188 -0.492188 24.730469 -0.304688 C 24.808594 -0.0742188 24.996094 0 25.265625 0 L 34 0 C 34.191406 0 34.34375 -0.0390625 34.457031 -0.191406 C 34.570312 -0.34375 34.609375 -0.492188 34.570312 -0.683594 Z M 20.894531 -15.386719 L 15.992188 -15.386719 C 15.84375 -15.386719 15.726562 -15.425781 15.652344 -15.539062 C 15.539062 -15.652344 15.5 -15.804688 15.574219 -15.957031 L 18.046875 -24.429688 C 18.082031 -24.617188 18.199219 -24.730469 18.425781 -24.730469 C 18.652344 -24.730469 18.765625 -24.617188 18.84375 -24.429688 L 21.273438 -15.957031 C 21.3125 -15.804688 21.273438 -15.652344 21.199219 -15.539062 C 21.121094 -15.425781 21.007812 -15.386719 20.894531 -15.386719 Z M 20.894531 -15.386719" transform="translate(768.431 601.163)"/></g></g></g><g fill="#FFC1B2" fill-opacity=".302"><g><g><path d="M 33.28125 -37.382812 C 33.164062 -37.609375 33.015625 -37.726562 32.824219 -37.726562 L 32.824219 -37.761719 L 23.289062 -37.761719 C 23.023438 -37.761719 22.832031 -37.648438 22.757812 -37.421875 C 22.640625 -37.191406 22.679688 -36.964844 22.871094 -36.8125 C 23.175781 -36.433594 23.210938 -36.054688 22.984375 -35.671875 L 18.160156 -27.125 C 18.082031 -26.972656 17.929688 -26.933594 17.78125 -26.933594 C 17.628906 -26.933594 17.515625 -26.972656 17.4375 -27.125 L 12.613281 -35.671875 C 12.386719 -36.089844 12.421875 -36.472656 12.765625 -36.8125 C 12.917969 -36.964844 12.917969 -37.191406 12.839844 -37.421875 C 12.765625 -37.648438 12.574219 -37.761719 12.347656 -37.761719 L 2.773438 -37.761719 L 2.8125 -37.726562 C 2.582031 -37.726562 2.394531 -37.609375 2.316406 -37.382812 C 2.242188 -37.230469 2.242188 -37.117188 2.28125 -37.003906 C 2.316406 -36.851562 2.394531 -36.773438 2.507812 -36.699219 L 2.546875 -36.660156 C 3.039062 -36.28125 3.496094 -35.863281 3.875 -35.40625 C 4.253906 -34.953125 4.636719 -34.457031 4.9375 -33.925781 L 12.804688 -20.058594 C 13.636719 -18.617188 14.054688 -17.058594 14.054688 -15.386719 L 14.054688 -3.230469 C 14.054688 -2.394531 13.753906 -1.632812 13.183594 -0.988281 C 12.953125 -0.761719 12.917969 -0.570312 13.03125 -0.34375 C 13.105469 -0.113281 13.296875 0 13.601562 0 L 22.109375 0 C 22.339844 0 22.527344 -0.0742188 22.605469 -0.304688 C 22.679688 -0.53125 22.679688 -0.722656 22.527344 -0.910156 C 21.882812 -1.59375 21.578125 -2.394531 21.578125 -3.304688 L 21.578125 -15.386719 C 21.578125 -17.019531 21.957031 -18.578125 22.792969 -20.058594 L 30.660156 -33.925781 C 31.265625 -34.988281 32.0625 -35.902344 33.089844 -36.699219 C 33.316406 -36.851562 33.394531 -37.078125 33.28125 -37.382812 Z M 33.28125 -37.382812" transform="translate(877.078 601.163)"/></g></g></g></svg>