<?xml version="1.0" encoding="utf-8"?>
<!-- Generator: Adobe Illustrator 24.0.2, SVG Export Plug-In . SVG Version: 6.00 Build 0)  -->
<svg version="1.1" id="Layer_1" xmlns="http://www.w3.org/2000/svg" xmlns:xlink="http://www.w3.org/1999/xlink" x="0px" y="0px"
	 viewBox="0 0 512 512" style="enable-background:new 0 0 512 512;" xml:space="preserve">
<style type="text/css">
	.st0{fill:#C1E8F7;}
	.st1{fill:none;}
	.st2{fill:#FF6020;}
	.st3{fill:#835F55;}
	.st4{fill:#FFFFFF;}
	.st5{fill:#EAEAEA;}
	.st6{fill:#FF8132;}
	.st7{fill:#FD501D;}
	.st8{fill:#906A5D;}
	.st9{fill:#554C44;}
	.st10{fill:#FFC211;}
	.st11{fill:#FFB21D;}
</style>
<circle id="XMLID_8219_" class="st0" cx="256.0887" cy="255.7101" r="251.1834"/>
<g id="XMLID_7960_">
	<path id="XMLID_7986_" class="st1" d="M213.2306,298.4621c0.0613-0.2555,0.1113-0.5035,0.1688-0.756L213.2306,298.4621z"/>
	<path id="XMLID_7985_" class="st1" d="M300.1216,297.386l-0.1442-0.6447C300.0249,296.9557,300.0712,297.1697,300.1216,297.386z"/>
	<path id="XMLID_7984_" class="st2" d="M429.5216,382.6052c0.1726,0.3104,0.2435,0.5812,0.0867,0.7597
		c-1.5158,1.7201-22.729,48.3994-33.1118,80.6506c20.3496-13.7434,38.5597-30.4045,54.0714-49.3616
		C443.134,399.9135,436.3026,388.6541,429.5216,382.6052z"/>
	<path id="XMLID_7983_" class="st3" d="M213.3994,297.7061c-0.0575,0.2525-0.1076,0.5005-0.1688,0.756l-1.0653,4.7931
		c-3.1342,5.9028-3.7124,13.4315-2.5642,21.1347c8.5085,10.5801,24.2025,22.5728,47.1092,22.5728
		c23.2239,0,39.0202-12.3244,47.4435-23.0087c1.0552-7.1851,0.4669-14.1805-2.5276-19.8214l-1.5046-6.7466
		c-0.0504-0.2163-0.0967-0.4303-0.1442-0.6447l-0.1304-0.5853l0.0082,0.0015c-0.5902-2.8078-0.9532-5.5143-1.1665-8.0483
		c-0.4348,0.3956-0.8546,0.8068-1.2957,1.1945c-3.7517,3.2967-7.766,6.3103-12.0786,8.8357
		c-3.6777,2.1537-7.5706,3.9411-11.6297,5.2462c-3.6885,1.1856-7.5004,1.9644-11.3551,2.3536
		c-4.7878,0.4852-9.703,0.3377-14.4587-0.4165c-3.9037-0.6193-7.7349-1.6626-11.4145-3.107
		c-4.1293-1.6226-8.0513-3.739-11.7391-6.1983c-3.5137-2.3427-6.7664-5.0459-9.8898-7.8873
		c-0.1998,2.5097-0.5543,5.2017-1.1191,8.0341c0.0119-0.0019,0.0239-0.0056,0.0239-0.0056L213.3994,297.7061z"/>
	<path id="XMLID_7982_" class="st4" d="M289.1804,355.3764c2.7914-2.9677,5.3911-6.5998,7.6445-10.592
		c-19.6283,13.7005-40.1146,12.4238-40.1146,12.4238s-20.6406,1.1546-40.2891-12.6064c2.2079,4.0909,4.7852,7.7936,7.59,10.7747
		c22.7898,31.3017,32.448,69.3653,32.4693,69.4512c0,0,0.0007,0.0026,0.0015,0.0034c0.0769-0.0235,0.1897-0.1438,0.2857-0.2204
		C257.5474,421.631,267.3188,385.4033,289.1804,355.3764z"/>
	<path id="XMLID_7981_" class="st5" d="M256.7103,357.2082c0,0,20.4863,1.2767,40.1146-12.4238
		c3.5974-6.3772,6.2805-13.6908,7.3289-20.8303c-8.4233,10.6843-24.2197,23.0087-47.4435,23.0087
		c-22.9067,0-38.6007-11.9927-47.1092-22.5728c1.0369,6.9505,3.4846,14.0318,6.8202,20.2118
		C236.0697,358.3627,256.7103,357.2082,256.7103,357.2082z"/>
	<path id="XMLID_7980_" class="st2" d="M82.5692,383.3642c-6.6095,6.2774-13.284,17.3831-20.5393,31.8242
		c15.4168,18.7382,33.4894,35.2103,53.6511,48.8271c-10.384-32.2512-31.5964-78.9305-33.1118-80.6506V383.3642z"/>
	<path id="XMLID_7977_" class="st6" d="M429.5216,382.6052c-1.8011-3.2437-20.8976-13.3741-44.6862-24.0381
		c-16.5303-7.4103-30.5266-17.4578-44.2309-24.8827c2.3947,4.8551,4.7912,10.3485,7.175,16.627c0,0-39.5484,7.113-43.8181,8.4263
		c-4.2686,1.3141-0.5797,5.2861-6.0668,11.1224c-25.9499,27.6068-36.3596,51.9908-41.1844,54.9708h2.4686v81.9841
		c50.8251-0.6156,98.0325-16.2681,137.3176-42.7995c10.3828-32.2512,31.596-78.9305,33.1118-80.6506
		C429.7652,383.1864,429.6942,382.9156,429.5216,382.6052z M370.906,462.118c-14.839,5.5954-31.9804,10.5509-40.5808,10.5509
		c-8.6011,0-37.7297-8.959-43.464-15.7683c-2.5325-3.0072-2.1493-17.5598,1.7929-17.9183
		c7.9803-0.7257,86.1567,0.7624,86.122,4.7046C374.6958,453.0059,376.0464,460.1802,370.906,462.118z"/>
	<polygon id="XMLID_7976_" class="st6" points="256.4813,424.831 256.4821,424.831 256.4813,424.8284 	"/>
	<path id="XMLID_7973_" class="st6" d="M253.7849,424.831h2.6965c-4.8241-2.9799-15.2345-27.364-41.1844-54.9708
		c-5.4871-5.8363-1.7982-9.8084-6.0668-11.1224c-4.269-1.3133-43.8174-8.4263-43.8174-8.4263
		c1.9998-5.2701,4.0161-9.9791,6.0354-14.2343c-13.8331,6.6469-28.1839,15.3522-44.1061,22.4899
		c-26.0656,11.6846-46.5695,22.7581-44.7729,24.7971v0.0007c1.5154,1.7201,22.7278,48.3994,33.1118,80.6506
		c39.4882,26.6693,86.9766,42.358,138.1039,42.8193V424.831z M177.9591,472.669c-8.6004,0-25.7418-4.9556-40.5804-10.5509
		c-5.1408-1.9379-3.7901-9.1122-3.8705-18.4312c-0.0344-3.9422,78.142-5.4303,86.1223-4.7046
		c3.9429,0.3586,4.325,14.9111,1.7929,17.9183C215.6891,463.71,186.5606,472.669,177.9591,472.669z"/>
	<path id="XMLID_7972_" class="st6" d="M256.4821,424.831h0.2282c0,0,0.0235-0.09,0.0575-0.2204
		C256.6718,424.6872,256.559,424.8074,256.4821,424.831z"/>
	<path id="XMLID_7971_" class="st5" d="M259.1789,424.831h-2.4686l0,0l0,0h-0.2282h-0.0008l0,0l0,0h-2.6965v82.0039
		c0.7706,0.0075,1.5311,0.0587,2.3043,0.0587c1.0361,0,2.0555-0.0657,3.0898-0.0784V424.831z"/>
	<path id="XMLID_7970_" class="st7" d="M165.4128,350.3114c0,0,39.5484,7.113,43.8174,8.4263
		c4.2686,1.3141,0.5797,5.2861,6.0668,11.1224c25.9498,27.6068,36.3603,51.9908,41.1844,54.9708l0,0l0,0l-0.0007-0.0034
		c-0.0213-0.0859-9.6795-38.1495-32.4693-69.4512c-2.8048-2.9811-5.3821-6.6838-7.59-10.7747
		c-3.3356-6.18-5.7833-13.2612-6.8202-20.2118c-1.1482-7.7032-0.57-15.2319,2.5642-21.1347l1.0653-4.7931l0.1688-0.756
		l0.3448-1.5501c0,0-0.0239,0.0063-0.0359,0.0082c-10.7149,2.6188-26.6016,6.9106-42.2601,39.9129
		C169.4289,340.3323,167.4126,345.0414,165.4128,350.3114z"/>
	<path id="XMLID_7969_" class="st7" d="M299.9775,296.7413l0.1442,0.6447l1.5046,6.7466c2.9945,5.641,3.5828,12.6364,2.5276,19.8214
		c-1.0485,7.1396-3.7315,14.4532-7.3289,20.8303c-2.2534,3.9922-4.8532,7.6244-7.6445,10.592
		c-21.8616,30.0269-31.633,66.2546-32.4126,69.2342c-0.034,0.1304-0.0575,0.2204-0.0575,0.2204l0,0l0,0
		c4.8248-2.9799,15.2346-27.364,41.1844-54.9708c5.4871-5.8363,1.7981-9.8084,6.0668-11.1224
		c4.2697-1.3133,43.8181-8.4263,43.8181-8.4263c-2.3838-6.2786-4.7804-11.772-7.175-16.627
		c-15.2118-30.8467-30.2988-34.9734-40.7492-37.5269l-0.0082-0.0015L299.9775,296.7413z"/>
	<path id="XMLID_7968_" class="st8" d="M236.4563,302.2157c3.6796,1.4444,7.5108,2.4877,11.4145,3.107
		c4.7557,0.7542,9.6709,0.9017,14.4587,0.4165c3.8548-0.3892,7.6666-1.168,11.3551-2.3536
		c4.0591-1.3051,7.952-3.0924,11.6297-5.2462c4.3127-2.5254,8.327-5.539,12.0786-8.8357c0.4411-0.3877,0.861-0.799,1.2957-1.1945
		c0.7553-0.6888,1.5176-1.3678,2.2523-2.0783c16.131-15.5741,15.9917-54.9271,19.8857-52.1458
		c8.8992,5.9794,14.6007-11.8194,15.7134-22.3875c0.8524-8.1036-1.7866-12.5646-5.0676-12.2198
		c-0.313,0.517-0.6331,0.9465-0.9622,1.2311c-4.2212,3.6441-6.1445,13.0539-6.3779,14.452h-5.4333
		c-2.8152-3.0831-2.9987-10.9585-5.7033-19.6466c-17.1422,4.3437-37.8548,7.7088-56.5146,7.7088
		c-18.4775,0-39.5357-3.4801-56.9441-7.9292c-0.0176,0.0318-0.0501,0.0702-0.0658,0.102
		c-2.382,4.7632-3.1761,19.0538-3.1761,19.0538h-6.837c0-10.2319-7.4357-14.4849-7.4357-14.4849s-0.0627-0.1953-0.1587-0.511
		c-3.2426-0.2596-5.8289,4.2085-4.9836,12.2437c1.1127,10.5681,6.8138,28.3669,15.7134,22.3875
		c3.894-2.7813,3.7554,36.5717,19.8853,52.1458c0.7553,0.7295,1.5714,1.3925,2.3483,2.0992
		c3.1234,2.8414,6.3761,5.5446,9.8898,7.8873C228.405,298.4767,232.327,300.5931,236.4563,302.2157z"/>
	<path id="XMLID_7967_" class="st9" d="M312.9959,195.3142c2.7047,8.6882,2.8881,16.5636,5.7033,19.6466h5.4333
		c0.2335-1.3981,2.1567-10.8079,6.3779-14.452c0.3291-0.2846,0.6492-0.7142,0.9622-1.2311c1.2338-2.0421,2.3106-5.84,3.1279-10.6406
		C328.6429,190.9152,321.237,193.2262,312.9959,195.3142z"/>
	<path id="XMLID_7966_" class="st9" d="M189.4584,214.2496h6.837c0,0,0.7941-14.2907,3.1761-19.0538
		c0.0157-0.0318,0.0482-0.0702,0.0658-0.102c-7.4559-1.9061-14.2462-3.9881-19.8674-6.0533
		c0.8255,5.3418,1.8187,8.9732,2.1941,10.2133c0.096,0.3156,0.1587,0.511,0.1587,0.511S189.4584,204.0177,189.4584,214.2496z"/>
	<path id="XMLID_7965_" class="st2" d="M219.6306,438.9823c-7.9803-0.7257-86.1567,0.7624-86.1223,4.7046
		c0.0803,9.319-1.2704,16.4933,3.8705,18.4312c14.8386,5.5954,31.98,10.5509,40.5804,10.5509
		c8.6015,0,37.7301-8.959,43.4644-15.7683C223.9556,453.8934,223.5735,439.3409,219.6306,438.9823z"/>
	<path id="XMLID_7964_" class="st2" d="M374.7761,443.6869c0.0347-3.9422-78.1416-5.4303-86.122-4.7046
		c-3.9422,0.3586-4.3254,14.9111-1.7929,17.9183c5.7343,6.8094,34.8629,15.7683,43.464,15.7683
		c8.6004,0,25.7418-4.9556,40.5808-10.5509C376.0464,460.1802,374.6958,453.0059,374.7761,443.6869z"/>
	<path id="XMLID_7963_" class="st10" d="M203.42,183.8425c10.0579,2.1384,28.7221,3.705,41.0174,4.5648
		c-2.1227-44.9589-32.9676-97.5167-35.3869-101.5735c-36.4197,20.3212-41.9512,64.1098-41.9512,88.4711
		c0,0,0.3709,0.1714,1.0795,0.4643C173.1462,176.4639,183.2,179.5417,203.42,183.8425z"/>
	<path id="XMLID_7962_" class="st10" d="M268.526,188.4073c12.2964-0.8598,30.9599-2.4264,41.0167-4.5648
		c20.2207-4.3008,30.2737-7.3786,35.2412-8.0733c0.7086-0.2928,1.0806-0.4643,1.0806-0.4643
		c0-24.3613-5.5326-68.1499-41.9524-88.4711C301.4929,90.8906,270.6491,143.4485,268.526,188.4073z"/>
	<path id="XMLID_7961_" class="st11" d="M199.5372,195.0938c17.4085,4.4491,38.4666,7.9292,56.9441,7.9292
		c18.6598,0,39.3724-3.3651,56.5146-7.7088c8.2411-2.088,15.6469-4.399,21.6046-6.6771c9.1573-3.4999,14.8969-6.9132,14.8969-9.2761
		c0-3.1686-0.7093-4.1528-4.7135-3.5918c-4.9675,0.6947-15.0205,3.7726-35.2412,8.0733
		c-10.0568,2.1384-28.7203,3.705-41.0167,4.5648c2.1231-44.9589,32.9669-97.5167,35.3862-101.5735
		c0.0986-0.1662,0.167-0.279,0.167-0.279c-10.5162-10.6324-31.1934-16.9546-49.1364-16.7922
		c-17.0592,0.155-36.4066,7.0069-46.0593,16.7922c0,0,0.0684,0.1128,0.167,0.279c2.4193,4.0568,33.2642,56.6147,35.3869,101.5735
		c-12.2953-0.8598-30.9596-2.4264-41.0174-4.5648c-20.22-4.3008-30.2738-7.3786-35.2413-8.0733
		c-4.0042-0.561-4.7128,0.4232-4.7128,3.5918c0,2.4533,6.3006,6.038,16.2038,9.6795
		C185.291,191.1057,192.0813,193.1877,199.5372,195.0938z"/>
</g>
</svg>
