<?xml version="1.0" encoding="UTF-8" standalone="no"?> <svg width="64" height="64" viewBox="0 0 64 64" fill="none" xmlns="http://www.w3.org/2000/svg">
<path d="M8 41H6V62H8V41Z" fill="#6D6E71"/>
<path d="M58 41H56V62H58V41Z" fill="#6D6E71"/>
<path d="M55 17H51C49.9391 17 48.9217 17.4214 48.1716 18.1716C47.4214 18.9217 47 19.9391 47 21V30H38V36H47C45.4087 36 43.8826 36.6321 42.7574 37.7574C41.6321 38.8826 41 40.4087 41 42V61H47V46C47 45.4696 47.2107 44.9609 47.5858 44.5858C47.9609 44.2107 48.4696 44 49 44H55C56.5897 43.9947 58.1127 43.3609 59.2368 42.2368C60.3609 41.1127 60.9947 39.5897 61 38V23C61 21.4087 60.3679 19.8826 59.2426 18.7574C58.1174 17.6321 56.5913 17 55 17Z" fill="#2488FF"/>
<path d="M36 15H32H28L32 21L36 15Z" fill="#FFCD00"/>
<path d="M47 36H46H18H17C18.5913 36 20.1174 36.6321 21.2426 37.7574C22.3679 38.8826 23 40.4087 23 42H41C41 40.4087 41.6321 38.8826 42.7574 37.7574C43.8826 36.6321 45.4087 36 47 36Z" fill="#808285"/>
<path d="M26 36V30H17V21C17 19.9391 16.5786 18.9217 15.8284 18.1716C15.0783 17.4214 14.0609 17 13 17H9C7.4087 17 5.88258 17.6321 4.75736 18.7574C3.63214 19.8826 3 21.4087 3 23V38C3.00527 39.5897 3.63911 41.1127 4.76318 42.2368C5.88726 43.3609 7.41032 43.9947 9 44H15C15.5304 44 16.0391 44.2107 16.4142 44.5858C16.7893 44.9609 17 45.4696 17 46V61H23V42C23 40.4087 22.3679 38.8826 21.2426 37.7574C20.1174 36.6321 18.5913 36 17 36H26Z" fill="#5EAC24"/>
<path d="M26 36H38V30H42V21C42 19.4087 41.3679 17.8826 40.2426 16.7574C39.1174 15.6321 37.5913 15 36 15L32 21L28 15C26.4087 15 24.8826 15.6321 23.7574 16.7574C22.6321 17.8826 22 19.4087 22 21V30H26V36Z" fill="#ED1C24"/>
<path d="M32 15C35.3137 15 38 12.3137 38 9C38 5.68629 35.3137 3 32 3C28.6863 3 26 5.68629 26 9C26 12.3137 28.6863 15 32 15Z" fill="#ED1C24"/>
<path d="M13 17C16.3137 17 19 14.3137 19 11C19 7.68629 16.3137 5 13 5C9.68629 5 7 7.68629 7 11C7 14.3137 9.68629 17 13 17Z" fill="#5EAC24"/>
<path d="M51 17C54.3137 17 57 14.3137 57 11C57 7.68629 54.3137 5 51 5C47.6863 5 45 7.68629 45 11C45 14.3137 47.6863 17 51 17Z" fill="#2488FF"/>
<path d="M52 23V32C52 32.5304 51.7893 33.0391 51.4142 33.4142C51.0391 33.7893 50.5304 34 50 34H38V36H50C51.0609 36 52.0783 35.5786 52.8284 34.8284C53.5786 34.0783 54 33.0609 54 32V23C54 22.7348 53.8946 22.4804 53.7071 22.2929C53.5196 22.1054 53.2652 22 53 22C52.7348 22 52.4804 22.1054 52.2929 22.2929C52.1054 22.4804 52 22.7348 52 23Z" fill="#1C7DF2"/>
<path d="M12 23V32C12 32.5304 12.2107 33.0391 12.5858 33.4142C12.9609 33.7893 13.4696 34 14 34H26V36H14C12.9391 36 11.9217 35.5786 11.1716 34.8284C10.4214 34.0783 10 33.0609 10 32V23C10 22.7348 10.1054 22.4804 10.2929 22.2929C10.4804 22.1054 10.7348 22 11 22V22C11.2652 22 11.5196 22.1054 11.7071 22.2929C11.8946 22.4804 12 22.7348 12 23Z" fill="#4E901E"/>
<path d="M33 60V42H31V60H27V62H31H33H37V60H33Z" fill="#6D6E71"/>
</svg>
