<?xml version="1.0" encoding="UTF-8" standalone="no"?> <svg width="64" height="64" viewBox="0 0 64 64" fill="none" xmlns="http://www.w3.org/2000/svg">
<path d="M25 16V24C24.9983 25.209 25.3108 26.3976 25.9069 27.4495C26.5029 28.5013 27.362 29.3802 28.4 30H35.6C36.638 29.3802 37.4971 28.5013 38.0932 27.4495C38.6892 26.3976 39.0017 25.209 39 24V16H25Z" fill="#FFBCAB"/>
<path d="M40 24C40.5299 23.9984 41.0377 23.7872 41.4125 23.4125C41.7872 23.0377 41.9984 22.5299 42 22V21C41.9984 20.4701 41.7872 19.9623 41.4125 19.5875C41.0377 19.2128 40.5299 19.0016 40 19H39V24H40Z" fill="#FF9478"/>
<path d="M24 19C23.4701 19.0016 22.9623 19.2128 22.5875 19.5875C22.2128 19.9623 22.0016 20.4701 22 21V22C22.0016 22.5299 22.2128 23.0377 22.5875 23.4125C22.9623 23.7872 23.4701 23.9984 24 24H25V19H24Z" fill="#FF9478"/>
<path d="M47 32V50H17V32C17.0016 31.4701 17.2128 30.9623 17.5875 30.5875C17.9623 30.2128 18.4701 30.0016 19 30H45C45.5299 30.0016 46.0377 30.2128 46.4125 30.5875C46.7872 30.9623 46.9984 31.4701 47 32V32Z" fill="#D1D3D4"/>
<path d="M45 30V34C45 37.713 43.525 41.274 40.8995 43.8995C38.274 46.525 34.713 48 31 48H17V50H47V32C46.9984 31.4701 46.7872 30.9623 46.4125 30.5875C46.0377 30.2128 45.5299 30.0016 45 30V30Z" fill="#BCBEC0"/>
<path d="M51 44.779V41.472C50.9999 40.1282 50.6256 38.811 49.9191 37.6679C49.2126 36.5249 48.2019 35.6011 47 35V44H49C49.7403 44.002 50.4533 44.2798 51 44.779V44.779Z" fill="#ED1C24"/>
<path d="M13 41.472V44.779C13.5467 44.2798 14.2597 44.002 15 44H17V35C15.7981 35.6011 14.7874 36.5249 14.0809 37.6679C13.3744 38.811 13.0001 40.1282 13 41.472V41.472Z" fill="#ED1C24"/>
<path d="M49 50C49.7956 50 50.5587 49.6839 51.1213 49.1213C51.6839 48.5587 52 47.7956 52 47C52 46.2044 51.6839 45.4413 51.1213 44.8787C50.5587 44.3161 49.7956 44 49 44H47V50H49Z" fill="#FF9478"/>
<path d="M17 44H15C14.2044 44 13.4413 44.3161 12.8787 44.8787C12.3161 45.4413 12 46.2044 12 47C12 47.7956 12.3161 48.5587 12.8787 49.1213C13.4413 49.6839 14.2044 50 15 50H17V44Z" fill="#FF9478"/>
<path d="M32 2.92902L17.929 8.00002L32 13.071L45 8.38602L46.071 8.00002L32 2.92902Z" fill="#FF5023"/>
<path d="M23 9.828V16H41V9.828L32 13.071L23 9.828Z" fill="#ED1C24"/>
<path d="M32 13.071L23 9.828V11.828L32 15.071L41 11.828V9.828L32 13.071Z" fill="#D80027"/>
<path d="M61 52C60.9984 52.5299 60.7872 53.0377 60.4125 53.4125C60.0377 53.7872 59.5299 53.9984 59 54H5C4.46957 54 3.96086 53.7893 3.58579 53.4142C3.21071 53.0391 3 52.5304 3 52C3 51.4696 3.21071 50.9609 3.58579 50.5858C3.96086 50.2107 4.46957 50 5 50H59C59.5299 50.0016 60.0377 50.2128 60.4125 50.5875C60.7872 50.9623 60.9984 51.4701 61 52V52Z" fill="#8B5E3C"/>
<path d="M59 54H5V61H59V54Z" fill="#C49A6C"/>
<path d="M59 54H5V56H59V54Z" fill="#A97C50"/>
<path d="M29 22C29.2652 22 29.5196 21.8946 29.7071 21.7071C29.8946 21.5196 30 21.2652 30 21V20C30 19.7348 29.8946 19.4804 29.7071 19.2929C29.5196 19.1054 29.2652 19 29 19C28.7348 19 28.4804 19.1054 28.2929 19.2929C28.1054 19.4804 28 19.7348 28 20V21C28 21.2652 28.1054 21.5196 28.2929 21.7071C28.4804 21.8946 28.7348 22 29 22Z" fill="#231F20"/>
<path d="M35 22C35.2652 22 35.5196 21.8946 35.7071 21.7071C35.8946 21.5196 36 21.2652 36 21V20C36 19.7348 35.8946 19.4804 35.7071 19.2929C35.5196 19.1054 35.2652 19 35 19C34.7348 19 34.4804 19.1054 34.2929 19.2929C34.1054 19.4804 34 19.7348 34 20V21C34 21.2652 34.1054 21.5196 34.2929 21.7071C34.4804 21.8946 34.7348 22 35 22Z" fill="#231F20"/>
<path d="M35.707 25.707C35.8749 25.5157 35.9635 25.2676 35.9548 25.0132C35.9461 24.7589 35.8408 24.5174 35.6603 24.338C35.4797 24.1586 35.2376 24.0548 34.9832 24.0477C34.7287 24.0407 34.4812 24.1309 34.291 24.3C33.6829 24.9066 32.859 25.2473 32 25.2473C31.141 25.2473 30.3171 24.9066 29.709 24.3V24.3C29.5174 24.1388 29.2724 24.0553 29.0222 24.0661C28.7721 24.0768 28.5351 24.181 28.358 24.3581C28.181 24.5351 28.0768 24.7721 28.0661 25.0222C28.0553 25.2724 28.1388 25.5174 28.3 25.709C29.2835 26.6907 30.6164 27.242 32.006 27.242C33.3956 27.242 34.7285 26.6907 35.712 25.709L35.707 25.707Z" fill="#231F20"/>
<path d="M59 49H52.44C52.8037 48.3961 52.9972 47.705 53 47C52.9969 46.0021 52.6185 45.0418 51.94 44.31C51.9753 44.2102 51.9955 44.1058 52 44V42C51.9961 40.5253 51.6292 39.0742 50.9315 37.7749C50.2339 36.4756 49.2271 35.368 48 34.55V32C47.9976 31.2051 47.6808 30.4434 47.1187 29.8813C46.5566 29.3192 45.7949 29.0024 45 29H38.22C39.1497 27.8509 39.7417 26.466 39.93 25H40C40.7949 24.9976 41.5566 24.6808 42.1187 24.1187C42.6808 23.5566 42.9976 22.7949 43 22V21C42.9976 20.2051 42.6808 19.4434 42.1187 18.8813C41.5566 18.3192 40.7949 18.0024 40 18V17H41C41.2652 17 41.5196 16.8947 41.7071 16.7071C41.8946 16.5196 42 16.2652 42 16V10.53L44 9.81001V16C44 16.2652 44.1054 16.5196 44.2929 16.7071C44.4804 16.8947 44.7348 17 45 17C45.2652 17 45.5196 16.8947 45.7071 16.7071C45.8946 16.5196 46 16.2652 46 16V9.09001L46.41 8.94001C46.6031 8.86995 46.7698 8.74214 46.8877 8.57396C47.0056 8.40578 47.0688 8.20539 47.0688 8.00001C47.0688 7.79464 47.0056 7.59425 46.8877 7.42607C46.7698 7.25789 46.6031 7.13008 46.41 7.06001L32.34 1.99001C32.1204 1.90999 31.8796 1.90999 31.66 1.99001L17.59 7.06001C17.397 7.13008 17.2302 7.25789 17.1123 7.42607C16.9944 7.59425 16.9312 7.79464 16.9312 8.00001C16.9312 8.20539 16.9944 8.40578 17.1123 8.57396C17.2302 8.74214 17.397 8.86995 17.59 8.94001L22 10.53V16C22 16.2652 22.1054 16.5196 22.2929 16.7071C22.4804 16.8947 22.7348 17 23 17H24V18C23.2051 18.0024 22.4434 18.3192 21.8813 18.8813C21.3192 19.4434 21.0024 20.2051 21 21V22C21.0024 22.7949 21.3192 23.5566 21.8813 24.1187C22.4434 24.6808 23.2051 24.9976 24 25H24.07C24.2583 26.466 24.8503 27.8509 25.78 29H19C18.2051 29.0024 17.4434 29.3192 16.8813 29.8813C16.3192 30.4434 16.0024 31.2051 16 32V34.55C14.7729 35.368 13.7661 36.4756 13.0685 37.7749C12.3709 39.0742 12.0039 40.5253 12 42V44C12.0045 44.1058 12.0247 44.2102 12.06 44.31C11.3815 45.0418 11.0031 46.0021 11 47C11.0028 47.705 11.1963 48.3961 11.56 49H5C4.29646 49.0055 3.61722 49.258 3.08101 49.7135C2.5448 50.169 2.18574 50.7985 2.0666 51.4919C1.94746 52.1853 2.07582 52.8985 2.42923 53.5069C2.78264 54.1152 3.33863 54.58 4 54.82V61C4 61.2652 4.10536 61.5196 4.29289 61.7071C4.48043 61.8947 4.73478 62 5 62C5.26522 62 5.51957 61.8947 5.70711 61.7071C5.89464 61.5196 6 61.2652 6 61V55H58V61C58 61.2652 58.1054 61.5196 58.2929 61.7071C58.4804 61.8947 58.7348 62 59 62C59.2652 62 59.5196 61.8947 59.7071 61.7071C59.8946 61.5196 60 61.2652 60 61V54.82C60.6614 54.58 61.2174 54.1152 61.5708 53.5069C61.9242 52.8985 62.0525 52.1853 61.9334 51.4919C61.8143 50.7985 61.4552 50.169 60.919 49.7135C60.3828 49.258 59.7035 49.0055 59 49ZM24 23C23.7348 23 23.4804 22.8947 23.2929 22.7071C23.1054 22.5196 23 22.2652 23 22V21C23 20.7348 23.1054 20.4804 23.2929 20.2929C23.4804 20.1054 23.7348 20 24 20V23ZM48 37.11C49.279 38.4167 49.9967 40.1715 50 42V43.14C49.6737 43.0522 49.3378 43.0052 49 43H48V37.11ZM48 45H49C49.5304 45 50.0391 45.2107 50.4142 45.5858C50.7893 45.9609 51 46.4696 51 47C51 47.5304 50.7893 48.0392 50.4142 48.4142C50.0391 48.7893 49.5304 49 49 49H48V45ZM41 21V22C41 22.2652 40.8946 22.5196 40.7071 22.7071C40.5196 22.8947 40.2652 23 40 23V20C40.2652 20 40.5196 20.1054 40.7071 20.2929C40.8946 20.4804 41 20.7348 41 21ZM20.88 8.00001L32 3.99001L43.12 8.00001L32 12.01L20.88 8.00001ZM24 15V11.25L31.66 14.01C31.8796 14.09 32.1204 14.09 32.34 14.01L40 11.25V15H24ZM38 17V24C38.0037 24.9938 37.7574 25.9726 37.2839 26.8463C36.8103 27.72 36.1247 28.4606 35.29 29H28.71C27.8753 28.4606 27.1897 27.72 26.7161 26.8463C26.2426 25.9726 25.9963 24.9938 26 24V17H38ZM18 32C18 31.7348 18.1054 31.4804 18.2929 31.2929C18.4804 31.1054 18.7348 31 19 31H45C45.2652 31 45.5196 31.1054 45.7071 31.2929C45.8946 31.4804 46 31.7348 46 32V49H18V32ZM14 42C14.0033 40.1715 14.721 38.4167 16 37.11V43H15C14.6622 43.0052 14.3263 43.0522 14 43.14V42ZM15 45H16V49H15C14.4696 49 13.9609 48.7893 13.5858 48.4142C13.2107 48.0392 13 47.5304 13 47C13 46.4696 13.2107 45.9609 13.5858 45.5858C13.9609 45.2107 14.4696 45 15 45ZM59 53H5C4.73478 53 4.48043 52.8947 4.29289 52.7071C4.10536 52.5196 4 52.2652 4 52C4 51.7348 4.10536 51.4804 4.29289 51.2929C4.48043 51.1054 4.73478 51 5 51H59C59.2652 51 59.5196 51.1054 59.7071 51.2929C59.8946 51.4804 60 51.7348 60 52C60 52.2652 59.8946 52.5196 59.7071 52.7071C59.5196 52.8947 59.2652 53 59 53Z" fill="#231F20"/>
<path d="M32 44C32.6466 44.0002 33.2835 43.8437 33.8564 43.5438C34.4292 43.2439 34.9208 42.8097 35.2891 42.2782C35.6573 41.7468 35.8913 41.134 35.9708 40.4923C36.0504 39.8507 35.9733 39.1993 35.746 38.594C35.6464 38.3552 35.4581 38.1644 35.2207 38.0615C34.9832 37.9587 34.7152 37.9518 34.4729 38.0424C34.2305 38.1331 34.0328 38.3141 33.9211 38.5475C33.8094 38.7808 33.7925 39.0484 33.874 39.294C34.0245 39.6928 34.0436 40.1292 33.9286 40.5396C33.8136 40.95 33.5705 41.313 33.2347 41.5755C32.8989 41.8381 32.4881 41.9865 32.062 41.9991C31.636 42.0118 31.2171 41.888 30.8663 41.6458C30.5156 41.4036 30.2514 41.0557 30.1123 40.6528C29.9732 40.2499 29.9664 39.8131 30.093 39.4061C30.2195 38.9991 30.4728 38.6432 30.8158 38.3903C31.1589 38.1373 31.5738 38.0006 32 38C32.2652 38 32.5196 37.8946 32.7071 37.7071C32.8946 37.5196 33 37.2652 33 37C33 36.7348 32.8946 36.4804 32.7071 36.2929C32.5196 36.1054 32.2652 36 32 36C30.9391 36 29.9217 36.4214 29.1716 37.1716C28.4214 37.9217 28 38.9391 28 40C28 41.0609 28.4214 42.0783 29.1716 42.8284C29.9217 43.5786 30.9391 44 32 44Z" fill="#231F20"/>
</svg>
