<?xml version="1.0" encoding="utf-8"?>
<!-- Generator: Adobe Illustrator 18.0.0, SVG Export Plug-In . SVG Version: 6.00 Build 0)  -->
<!DOCTYPE svg PUBLIC "-//W3C//DTD SVG 1.1//EN" "http://www.w3.org/Graphics/SVG/1.1/DTD/svg11.dtd">
<svg version="1.1" id="Layer_1" xmlns="http://www.w3.org/2000/svg" xmlns:xlink="http://www.w3.org/1999/xlink" x="0px" y="0px"
	 viewBox="0 0 302 222.7" enable-background="new 0 0 302 222.7" xml:space="preserve">
<g>
	<g>
		<path fill="#5FCCF5" stroke="#21409A" stroke-width="6.384" stroke-miterlimit="10" d="M11.5,215h204.5V10.6L11.5,215z M177.7,177
			h-76.1l76.1-76.1V177z"/>
		<g>
			<line fill="#5FCCF5" stroke="#21409A" stroke-width="6.384" stroke-miterlimit="10" x1="36.5" y1="204.4" x2="36.5" y2="215"/>
			<line fill="#5FCCF5" stroke="#21409A" stroke-width="6.384" stroke-miterlimit="10" x1="49.4" y1="204.4" x2="49.4" y2="215"/>
			<line fill="#5FCCF5" stroke="#21409A" stroke-width="6.384" stroke-miterlimit="10" x1="62.3" y1="204.4" x2="62.3" y2="215"/>
			<line fill="#5FCCF5" stroke="#21409A" stroke-width="6.384" stroke-miterlimit="10" x1="75.1" y1="204.4" x2="75.1" y2="215"/>
			<line fill="#5FCCF5" stroke="#21409A" stroke-width="6.384" stroke-miterlimit="10" x1="88" y1="204.4" x2="88" y2="215"/>
			<line fill="#5FCCF5" stroke="#21409A" stroke-width="6.384" stroke-miterlimit="10" x1="100.9" y1="204.4" x2="100.9" y2="215"/>
			<line fill="#5FCCF5" stroke="#21409A" stroke-width="6.384" stroke-miterlimit="10" x1="113.8" y1="204.4" x2="113.8" y2="215"/>
			<line fill="#5FCCF5" stroke="#21409A" stroke-width="6.384" stroke-miterlimit="10" x1="126.7" y1="204.4" x2="126.7" y2="215"/>
			<line fill="#5FCCF5" stroke="#21409A" stroke-width="6.384" stroke-miterlimit="10" x1="139.5" y1="204.4" x2="139.5" y2="215"/>
			<line fill="#5FCCF5" stroke="#21409A" stroke-width="6.384" stroke-miterlimit="10" x1="152.4" y1="204.4" x2="152.4" y2="215"/>
			<line fill="#5FCCF5" stroke="#21409A" stroke-width="6.384" stroke-miterlimit="10" x1="165.3" y1="204.4" x2="165.3" y2="215"/>
			<line fill="#5FCCF5" stroke="#21409A" stroke-width="6.384" stroke-miterlimit="10" x1="178.2" y1="204.4" x2="178.2" y2="215"/>
			<line fill="#5FCCF5" stroke="#21409A" stroke-width="6.384" stroke-miterlimit="10" x1="191.1" y1="204.4" x2="191.1" y2="215"/>
			<line fill="#5FCCF5" stroke="#21409A" stroke-width="6.384" stroke-miterlimit="10" x1="203.9" y1="204.4" x2="203.9" y2="215"/>
		</g>
	</g>
	<g>
		<path fill="#FFFFFF" stroke="#21409A" stroke-width="6.384" stroke-miterlimit="10" d="M295.4,174.5c0,3.9-3.2,7.1-7.1,7.1h-81.7
			c-3.9,0-7.1-3.2-7.1-7.1V52.5c0-3.9,3.2-7.1,7.1-7.1h81.7c3.9,0,7.1,3.2,7.1,7.1V174.5z"/>
		<g>
			
				<rect x="210.4" y="61.8" fill="#5FCCF5" stroke="#21409A" stroke-width="6.384" stroke-miterlimit="10" width="74.2" height="16.5"/>
			<g>
				<g>
					
						<rect x="217.2" y="92.5" fill="#5FCCF5" stroke="#21409A" stroke-width="6.384" stroke-miterlimit="10" width="14" height="14"/>
					
						<rect x="240.5" y="92.5" fill="#5FCCF5" stroke="#21409A" stroke-width="6.384" stroke-miterlimit="10" width="14" height="14"/>
					
						<rect x="263.7" y="92.5" fill="#5FCCF5" stroke="#21409A" stroke-width="6.384" stroke-miterlimit="10" width="14" height="14"/>
				</g>
				<g>
					
						<rect x="217.2" y="116" fill="#5FCCF5" stroke="#21409A" stroke-width="6.384" stroke-miterlimit="10" width="14" height="14"/>
					
						<rect x="240.5" y="116" fill="#5FCCF5" stroke="#21409A" stroke-width="6.384" stroke-miterlimit="10" width="14" height="14"/>
					
						<rect x="263.7" y="116" fill="#5FCCF5" stroke="#21409A" stroke-width="6.384" stroke-miterlimit="10" width="14" height="14"/>
				</g>
				<g>
					
						<rect x="217.2" y="139.6" fill="#5FCCF5" stroke="#21409A" stroke-width="6.384" stroke-miterlimit="10" width="14" height="14"/>
					
						<rect x="240.5" y="139.6" fill="#5FCCF5" stroke="#21409A" stroke-width="6.384" stroke-miterlimit="10" width="14" height="14"/>
					
						<rect x="263.7" y="139.6" fill="#5FCCF5" stroke="#21409A" stroke-width="6.384" stroke-miterlimit="10" width="14" height="14"/>
				</g>
			</g>
		</g>
		<path fill="none" stroke="#21409A" stroke-width="6.384" stroke-miterlimit="10" d="M286.4,151.1v15c0,3.9-3.2,7.1-7.1,7.1h-23.4"
			/>
	</g>
	<g>
		
			<polygon fill="#5FCCF5" stroke="#21409A" stroke-width="6.384" stroke-linecap="round" stroke-linejoin="round" stroke-miterlimit="10" points="
			35.9,157.6 22.8,144.5 122.1,45.2 135.2,58.3 		"/>
		
			<polygon fill="none" stroke="#21409A" stroke-width="6.384" stroke-linecap="round" stroke-linejoin="round" stroke-miterlimit="10" points="
			135.2,58.3 122.1,45.2 129.1,38.2 142.2,51.3 		"/>
		
			<path fill="none" stroke="#21409A" stroke-width="6.384" stroke-linecap="round" stroke-linejoin="round" stroke-miterlimit="10" d="
			M142.2,51.3l3.8-3.8c3.6-3.6,3.6-9.5,0-13.1c-3.6-3.6-9.5-3.6-13.1,0l-3.8,3.8L142.2,51.3z"/>
		
			<polygon fill="none" stroke="#21409A" stroke-width="6.384" stroke-linecap="round" stroke-linejoin="round" stroke-miterlimit="10" points="
			22.8,144.5 35.9,157.6 13.6,166.8 		"/>
		
			<polygon fill="none" stroke="#21409A" stroke-width="6.384" stroke-linecap="round" stroke-linejoin="round" stroke-miterlimit="10" points="
			18.1,155.8 13.6,166.8 24.6,162.3 		"/>
		<g>
			
				<line fill="none" stroke="#21409A" stroke-width="6.384" stroke-linecap="round" stroke-linejoin="round" stroke-miterlimit="10" x1="128.7" y1="51.8" x2="29.4" y2="151.1"/>
		</g>
	</g>
</g>
</svg>
