<?xml version="1.0" encoding="UTF-8" standalone="no"?> <svg width="64" height="64" viewBox="0 0 64 64" fill="none" xmlns="http://www.w3.org/2000/svg">
<path d="M23 37H49C51.6522 37 54.1957 38.0536 56.0711 39.9289C57.9464 41.8043 59 44.3478 59 47V61H13V47C13 44.3478 14.0536 41.8043 15.9289 39.9289C17.8043 38.0536 20.3478 37 23 37Z" fill="#57B7EB"/>
<path d="M56 55C54.6452 54.9989 53.2978 54.8008 52 54.412V48C51.2044 48 50.4413 48.3161 49.8787 48.8787C49.3161 49.4413 49 50.2044 49 51V53.111C46.8728 51.8844 45.106 50.1194 43.8772 47.9934C42.6485 45.8675 42.001 43.4555 42 41V37H23C20.3478 37 17.8043 38.0536 15.9289 39.9289C14.0536 41.8043 13 44.3478 13 47V61H59V55H56Z" fill="#4891D3"/>
<path d="M48 57H42V61H48V57Z" fill="#84D2F4"/>
<path d="M48 59V61H42V57H44C44.0016 57.5299 44.2128 58.0377 44.5875 58.4125C44.9623 58.7872 45.4701 58.9984 46 59H48Z" fill="#57B7EB"/>
<path d="M37 50H35V61H37V50Z" fill="#84D2F4"/>
<path d="M25 23V17L21 18V19C21 20.0609 21.4214 21.0783 22.1716 21.8284C22.9217 22.5786 23.9391 23 25 23Z" fill="#FCBC04"/>
<path d="M21 18V19C20.9975 19.2451 21.021 19.4898 21.07 19.73L21.51 19.62C21.8052 19.5454 22.1135 19.5392 22.4114 19.6018C22.7093 19.6644 22.989 19.7943 23.2292 19.9814C23.4693 20.1685 23.6636 20.4079 23.7972 20.6815C23.9308 20.9551 24.0001 21.2556 24 21.56V22.87C24.3257 22.9593 24.6623 23.0031 25 23V17L21 18Z" fill="#E59730"/>
<path d="M47 23V17L51 18V19C51 20.0609 50.5786 21.0783 49.8284 21.8284C49.0783 22.5786 48.0609 23 47 23Z" fill="#FCBC04"/>
<path d="M51 18V19C51.0025 19.2451 50.979 19.4898 50.93 19.73L50.49 19.62C50.1948 19.5454 49.8865 19.5392 49.5886 19.6018C49.2907 19.6644 49.011 19.7943 48.7708 19.9814C48.5306 20.1685 48.3364 20.4079 48.2028 20.6815C48.0692 20.9551 47.9999 21.2556 48 21.56V22.87C47.6743 22.9593 47.3377 23.0031 47 23V17L51 18Z" fill="#E59730"/>
<path d="M42 37L36 51L30 37V32H42V37Z" fill="#2D72BC"/>
<path d="M30 32V37L32.521 42.882C33.5354 43.609 34.752 44 36 44C37.248 44 38.4646 43.609 39.479 42.882L42 37V32H30Z" fill="#FCBC04"/>
<path d="M42 32V34.32C40.4876 36.4636 38.2613 37.9986 35.72 38.65C37.2529 39.4965 38.9692 39.9565 40.72 39.99L39.48 42.88C38.4658 43.6083 37.2486 44.0001 36 44.0001C34.7514 44.0001 33.5342 43.6083 32.52 42.88L30 37V32H42Z" fill="#E59730"/>
<path d="M25 14H47V25C47 27.9174 45.8411 30.7153 43.7782 32.7782C41.7153 34.8411 38.9174 36 36 36V36C33.0826 36 30.2847 34.8411 28.2218 32.7782C26.1589 30.7153 25 27.9174 25 25V14Z" fill="#F9E109"/>
<path d="M29 21.33V21.64C28.9667 24.5653 30.0751 27.3883 32.0898 29.5095C34.1046 31.6307 36.8669 32.8828 39.79 33C41.3901 33.0309 42.9775 32.71 44.44 32.06C42.9908 33.7938 41.0428 35.0392 38.8609 35.6269C36.679 36.2146 34.369 36.1161 32.2451 35.3447C30.1211 34.5734 28.2863 33.1666 26.99 31.3158C25.6937 29.4649 24.9989 27.2597 25 25V14H47V19.21C41.9936 18.2537 36.8834 17.9578 31.8 18.33C31.04 18.3822 30.3282 18.721 29.8084 19.2779C29.2887 19.8348 28.9997 20.5682 29 21.33V21.33Z" fill="#FCBC04"/>
<path d="M32 3H40C42.1217 3 44.1566 3.84285 45.6569 5.34315C47.1571 6.84344 48 8.87827 48 11V15H24V11C24 8.87827 24.8429 6.84344 26.3431 5.34315C27.8434 3.84285 29.8783 3 32 3V3Z" fill="#57B7EB"/>
<path d="M48 11V15H24V11C23.9997 9.01835 24.735 7.10709 26.0633 5.6365C27.3916 4.16592 29.2185 3.24068 31.19 3.04004C31.4005 3.61572 31.7831 4.11265 32.2858 4.46332C32.7885 4.81398 33.387 5.00137 34 5.00004H37C38.3405 4.9994 39.6595 5.33616 40.8357 5.97927C42.0118 6.62238 43.0071 7.55117 43.73 8.68004C43.9995 9.09039 44.3679 9.42636 44.8013 9.65703C45.2347 9.8877 45.7191 10.0057 46.21 10H47.94C47.9802 10.3319 48.0002 10.6658 48 11V11Z" fill="#4891D3"/>
<path d="M51 18L47.507 17.3C39.9109 15.781 32.0891 15.781 24.493 17.3L21 18C21 16.8528 21.3789 15.7377 22.0778 14.8279C22.7767 13.9182 23.7565 13.2647 24.865 12.969C32.1609 11.024 39.8391 11.024 47.135 12.969V12.969C48.2435 13.2647 49.2233 13.9182 49.9222 14.8279C50.6211 15.7377 51 16.8528 51 18Z" fill="#84D2F4"/>
<path d="M51 18L47.51 17.3C39.9119 15.78 32.0881 15.78 24.49 17.3L21 18C21.002 16.8541 21.381 15.7407 22.0786 14.8316C22.7762 13.9226 23.7536 13.2684 24.86 12.97C25.98 12.67 27.11 12.42 28.24 12.22C28.6858 12.6873 29.228 13.0519 29.829 13.2885C30.43 13.5251 31.0753 13.628 31.72 13.59C36.2381 13.3394 40.7674 13.8052 45.14 14.97C45.1477 14.9707 45.1548 14.9743 45.16 14.98C46.9283 15.4934 48.7444 15.8252 50.58 15.97C50.857 16.6109 50.9999 17.3017 51 18Z" fill="#57B7EB"/>
<path d="M43 9C42.8452 8.99999 42.6925 8.96405 42.554 8.895C41.3768 8.3077 40.0795 8.00135 38.764 8H33.236C31.9208 8.0015 30.6239 8.30785 29.447 8.895C29.2096 9.01355 28.9349 9.03295 28.6832 8.94894C28.4315 8.86492 28.2235 8.68437 28.105 8.447C27.9864 8.20963 27.967 7.93489 28.0511 7.68322C28.1351 7.43154 28.3156 7.22355 28.553 7.105C30.0078 6.38018 31.6106 6.00197 33.236 6H38.764C40.3894 6.00197 41.9922 6.38018 43.447 7.105C43.6488 7.20557 43.8107 7.37138 43.9064 7.57552C44.0021 7.77966 44.026 8.01015 43.9742 8.22958C43.9225 8.44902 43.7981 8.64453 43.6212 8.78438C43.4444 8.92423 43.2255 9.00021 43 9Z" fill="#F9E109"/>
<path d="M33 21.829C32.7348 21.829 32.4805 21.7236 32.293 21.536C31.9449 21.2029 31.4818 21.017 31 21.017C30.5182 21.017 30.055 21.2029 29.707 21.536C29.5184 21.7182 29.2658 21.819 29.0036 21.8167C28.7414 21.8144 28.4906 21.7092 28.3052 21.5238C28.1198 21.3384 28.0146 21.0876 28.0123 20.8254C28.01 20.5632 28.1108 20.3106 28.293 20.122C29.0221 19.4255 29.9916 19.0369 31 19.0369C32.0083 19.0369 32.9778 19.4255 33.707 20.122C33.8468 20.2619 33.942 20.44 33.9806 20.634C34.0191 20.8279 33.9993 21.029 33.9237 21.2117C33.848 21.3944 33.7198 21.5505 33.5554 21.6604C33.391 21.7703 33.1977 21.829 33 21.829Z" fill="#4891D3"/>
<path d="M43 21.829C42.7348 21.829 42.4805 21.7236 42.293 21.536C41.9449 21.2029 41.4818 21.017 41 21.017C40.5182 21.017 40.055 21.2029 39.707 21.536C39.5184 21.7182 39.2658 21.819 39.0036 21.8167C38.7414 21.8144 38.4906 21.7092 38.3052 21.5238C38.1198 21.3384 38.0146 21.0876 38.0123 20.8254C38.01 20.5632 38.1108 20.3106 38.293 20.122C39.0221 19.4255 39.9916 19.0369 41 19.0369C42.0083 19.0369 42.9778 19.4255 43.707 20.122C43.8468 20.2619 43.942 20.44 43.9806 20.634C44.0191 20.8279 43.9993 21.029 43.9237 21.2117C43.848 21.3944 43.7198 21.5505 43.5554 21.6604C43.391 21.7703 43.1977 21.829 43 21.829Z" fill="#4891D3"/>
<path d="M36 31.99C34.3421 31.9933 32.7279 31.4586 31.4 30.466C31.1878 30.3069 31.0476 30.07 31.0101 29.8074C30.9725 29.5449 31.0409 29.2782 31.2 29.066C31.3591 28.8538 31.596 28.7136 31.8586 28.6761C32.1211 28.6386 32.3878 28.7069 32.6 28.866C33.583 29.5966 34.7752 29.9911 36 29.9911C37.2248 29.9911 38.417 29.5966 39.4 28.866C39.5051 28.7872 39.6246 28.7299 39.7518 28.6973C39.879 28.6647 40.0114 28.6575 40.1414 28.6761C40.2714 28.6946 40.3965 28.7386 40.5095 28.8055C40.6225 28.8725 40.7212 28.961 40.8 29.066C40.8788 29.1711 40.9361 29.2906 40.9687 29.4178C41.0013 29.5451 41.0085 29.6774 40.99 29.8074C40.9714 29.9374 40.9274 30.0625 40.8605 30.1755C40.7936 30.2885 40.7051 30.3872 40.6 30.466C39.2721 31.4586 37.6579 31.9933 36 31.99V31.99Z" fill="#F8664F"/>
<path d="M36 28C35.8452 28 35.6925 27.964 35.554 27.895L33.554 26.895C33.4125 26.8241 33.2899 26.7206 33.1962 26.5931C33.1025 26.4656 33.0405 26.3176 33.0151 26.1614C32.9897 26.0053 33.0017 25.8453 33.0502 25.6946C33.0987 25.544 33.1823 25.4071 33.294 25.295L35.294 23.295C35.4826 23.1128 35.7352 23.012 35.9974 23.0143C36.2596 23.0166 36.5104 23.1218 36.6958 23.3072C36.8812 23.4926 36.9864 23.7434 36.9886 24.0056C36.9909 24.2678 36.8901 24.5204 36.708 24.709L35.689 25.728L36.448 26.107C36.6487 26.2082 36.8096 26.3741 36.9045 26.5779C36.9994 26.7817 37.0228 27.0115 36.971 27.2303C36.9193 27.4491 36.7953 27.644 36.6191 27.7837C36.4429 27.9233 36.2248 27.9995 36 28Z" fill="#FCBC04"/>
<path d="M37 52L35.955 53L35 52V50L35.955 51L37 50V52Z" fill="#57B7EB"/>
<path d="M43 48L36 51L42 37H45V42L43 44V48Z" fill="#84D2F4"/>
<path d="M29 48L36 51L30 37H27V42L29 44V48Z" fill="#84D2F4"/>
<path d="M43.73 8.68C43.6379 8.782 43.5252 8.86328 43.3994 8.91844C43.2735 8.97361 43.1374 9.00141 43 9C42.8431 9.0017 42.6884 8.96387 42.55 8.89C41.3715 8.30682 40.0748 8.00231 38.76 8H33.24C31.9251 8.00231 30.6284 8.30682 29.45 8.89C29.2169 8.98707 28.9557 8.99236 28.7189 8.90482C28.482 8.81728 28.2871 8.64339 28.1731 8.41806C28.0592 8.19273 28.0347 7.93264 28.1046 7.69001C28.1745 7.44739 28.3336 7.24018 28.55 7.11C30.0057 6.38036 31.6116 6.00029 33.24 6H38.76C39.6613 6.00118 40.5588 6.11882 41.43 6.35C42.3472 6.96201 43.1299 7.75487 43.73 8.68V8.68Z" fill="#FCBC04"/>
<path d="M13.7448 33.6798L8.54865 36.6798L18.5486 54.0003L23.7448 51.0003L13.7448 33.6798Z" fill="#D0D8DA"/>
<path d="M23.75 51.0001L18.55 54.0001L8.54999 36.6801L10.72 35.4301L11.94 34.7201L13.75 33.6801L16.33 38.1501C15.8036 39.298 14.9694 40.2775 13.92 40.9801L16.55 45.5401C17.0376 46.3816 17.8161 47.0159 18.7389 47.3235C19.6616 47.631 20.6649 47.5907 21.56 47.2101L23.75 51.0001Z" fill="#93999A"/>
<path d="M8.37898 26.385L11.732 32.193C11.9972 32.6524 12.0691 33.1983 11.9318 33.7106C11.7945 34.223 11.4593 34.6598 11 34.925V34.925C10.5406 35.1902 9.99473 35.2621 9.48238 35.1248C8.97004 34.9875 8.53321 34.6524 8.26798 34.193L4.91498 28.385C3.75974 29.6067 3.08285 31.2035 3.00809 32.8832C2.93333 34.563 3.46569 36.2135 4.50783 37.533C5.54997 38.8526 7.03225 39.7529 8.68362 40.0694C10.335 40.3858 12.0451 40.0973 13.5012 39.2566C14.9574 38.4159 16.0623 37.0791 16.6138 35.4907C17.1654 33.9023 17.1268 32.1685 16.5051 30.6062C15.8834 29.044 14.7201 27.7577 13.228 26.9826C11.7359 26.2075 10.0146 25.9954 8.37898 26.385V26.385Z" fill="#E9F1F2"/>
<path d="M27.843 52.1C27.2495 51.0727 26.3648 50.2443 25.3007 49.7197C24.2366 49.1951 23.0409 48.9977 21.8646 49.1525C20.6884 49.3073 19.5844 49.8074 18.6923 50.5894C17.8001 51.3715 17.1599 52.4006 16.8525 53.5464C16.545 54.6923 16.5842 55.9036 16.9651 57.0272C17.3459 58.1508 18.0513 59.1363 18.9921 59.8591C19.9329 60.5819 21.0669 61.0096 22.2507 61.0881C23.4345 61.1665 24.615 60.8923 25.643 60.3C26.3262 59.9063 26.9251 59.3819 27.4055 58.7566C27.8858 58.1314 28.2383 57.4175 28.4426 56.656C28.6469 55.8944 28.6991 55.1 28.5962 54.3183C28.4933 53.5365 28.2374 52.7827 27.843 52.1V52.1ZM23.643 56.832C23.3004 57.0298 22.9069 57.1215 22.5122 57.0957C22.1174 57.0698 21.7393 56.9275 21.4254 56.6867C21.1116 56.4459 20.8762 56.1174 20.7491 55.7429C20.6219 55.3683 20.6087 54.9644 20.7111 54.5823C20.8134 54.2003 21.0268 53.8571 21.3242 53.5963C21.6216 53.3355 21.9897 53.1687 22.3819 53.1171C22.774 53.0654 23.1727 53.1313 23.5275 53.3062C23.8823 53.4812 24.1772 53.7574 24.375 54.1C24.6399 54.5587 24.712 55.1037 24.5755 55.6155C24.439 56.1273 24.1051 56.5641 23.647 56.83L23.643 56.832Z" fill="#E9F1F2"/>
<path d="M16.98 33.6301C16.9163 34.6916 16.6116 35.7246 16.089 36.6508C15.5665 37.5769 14.8398 38.3718 13.9641 38.9752C13.0884 39.5785 12.0867 39.9744 11.0352 40.1328C9.98362 40.2912 8.9098 40.2079 7.89524 39.8893C6.88068 39.5707 5.95205 39.0251 5.17984 38.294C4.40764 37.5628 3.81216 36.6654 3.43862 35.6697C3.06508 34.6741 2.9233 33.6064 3.02403 32.5478C3.12477 31.4892 3.46537 30.4674 4.01999 29.5601C4.00313 29.7061 3.99644 29.8531 3.99999 30.0001C4.00187 31.5265 4.50263 33.0104 5.42599 34.2259C6.34935 35.4413 7.64469 36.3217 9.1147 36.7328C10.5847 37.1439 12.1488 37.0632 13.5687 36.5031C14.9886 35.943 16.1866 34.9341 16.98 33.6301V33.6301Z" fill="#D0D8DA"/>
<path d="M24 59C22.2962 59.0004 20.6509 58.3788 19.3731 57.2519C18.0952 56.1251 17.2727 54.5704 17.06 52.88C16.6018 54.0395 16.5157 55.3128 16.8137 56.5234C17.1116 57.734 17.7789 58.8219 18.7229 59.6362C19.6669 60.4506 20.841 60.951 22.0822 61.0682C23.3234 61.1853 24.5703 60.9134 25.65 60.29C26.6918 59.6916 27.5284 58.7923 28.05 57.71C26.8671 58.5509 25.4513 59.0018 24 59Z" fill="#D0D8DA"/>
<path d="M17 13C16.9998 12.6331 16.9663 12.2669 16.9 11.906L18.066 11.232L16.066 7.768L14.9 8.442C14.3396 7.96343 13.6954 7.59284 13 7.349V6H8.99999V7.349C8.30634 7.5934 7.66387 7.96396 7.10499 8.442L5.93799 7.768L3.93799 11.232L5.10399 11.906C4.96532 12.6287 4.96532 13.3713 5.10399 14.094L3.93799 14.768L5.93799 18.232L7.10499 17.558C7.66387 18.036 8.30634 18.4066 8.99999 18.651V20H13V18.651C13.6954 18.4072 14.3396 18.0366 14.9 17.558L16.067 18.232L18.067 14.768L16.9 14.094C16.9663 13.7331 16.9998 13.3669 17 13V13ZM11 15C10.6044 15 10.2177 14.8827 9.88885 14.6629C9.55995 14.4432 9.3036 14.1308 9.15223 13.7654C9.00085 13.3999 8.96125 12.9978 9.03842 12.6098C9.11559 12.2219 9.30607 11.8655 9.58578 11.5858C9.86548 11.3061 10.2218 11.1156 10.6098 11.0384C10.9978 10.9613 11.3999 11.0009 11.7654 11.1522C12.1308 11.3036 12.4432 11.56 12.6629 11.8889C12.8827 12.2178 13 12.6044 13 13C13 13.5304 12.7893 14.0391 12.4142 14.4142C12.0391 14.7893 11.5304 15 11 15Z" fill="#F9E109"/>
<path d="M13.56 17.3701C11.4383 17.3701 9.40344 16.5272 7.90315 15.0269C6.40286 13.5266 5.56 11.4918 5.56 9.37006C5.55809 9.01551 5.58148 8.66128 5.63 8.31006L3.94 11.2301L5.1 11.9101C4.96668 12.6306 4.96668 13.3695 5.1 14.0901L3.94 14.7701L5.94 18.2301L7.1 17.5601C7.66348 18.0335 8.30689 18.4026 9 18.6501V20.0001H13V18.6501C13.6931 18.4026 14.3365 18.0335 14.9 17.5601L16.06 18.2301L17.01 16.5901C15.9329 17.1051 14.7539 17.3717 13.56 17.3701V17.3701Z" fill="#FCBC04"/>
</svg>
