<?xml version="1.0" encoding="UTF-8" standalone="no"?> <svg width="512" height="512" viewBox="0 0 512 512" fill="none" xmlns="http://www.w3.org/2000/svg">
<path d="M488.396 122.402C486.434 118.878 483.616 115.906 480.202 113.758C476.788 111.611 472.887 110.359 468.862 110.118C464.836 109.877 460.814 110.654 457.168 112.378C453.521 114.102 450.368 116.717 448 119.981V24C448 21.8783 447.157 19.8435 445.657 18.3433C444.156 16.843 442.122 16.0001 440 16H72C69.8783 16.0001 67.8435 16.843 66.3433 18.3433C64.843 19.8435 64.0001 21.8783 64 24V424C64.0001 426.122 64.8427 428.157 66.3428 429.657L130.343 493.657C131.843 495.157 133.878 496 136 496H440C442.122 496 444.156 495.157 445.657 493.657C447.157 492.156 448 490.122 448 488V289.897L490.508 140.649C491.38 137.619 491.642 134.446 491.279 131.314C490.917 128.182 489.937 125.153 488.396 122.402V122.402ZM128 468.687L91.3135 432H128V468.687ZM144 480V424C144 421.878 143.157 419.844 141.657 418.343C140.156 416.843 138.122 416 136 416H80V32H432V170.837L408 255.103V240C408 237.878 407.157 235.844 405.657 234.343C404.156 232.843 402.122 232 400 232H368C365.878 232 363.844 232.843 362.343 234.343C360.843 235.844 360 237.878 360 240V248H356.529L334.86 211.884C334.149 210.699 333.144 209.719 331.942 209.038C330.739 208.358 329.381 208 328 208H324.259C320.012 208 315.841 209.127 312.171 211.266C308.502 213.405 305.466 216.479 303.374 220.175C301.281 223.871 300.207 228.056 300.261 232.303C300.314 236.549 301.494 240.706 303.679 244.348L305.871 248H290.124C286.721 248 283.357 248.724 280.255 250.123C277.153 251.523 274.384 253.566 272.132 256.117C269.88 258.668 268.196 261.669 267.192 264.92C266.189 268.172 265.888 271.6 266.31 274.977L270.31 306.977C271.043 312.778 273.866 318.113 278.249 321.982C282.633 325.852 288.277 327.992 294.124 328H336C338.122 328 340.157 327.157 341.657 325.657L355.313 312H360V320C360 322.122 360.843 324.156 362.343 325.657C363.844 327.157 365.878 328 368 328H387.238L352.306 450.649C351.966 451.844 351.908 453.101 352.139 454.321L356.976 480H144ZM392 248V311.28L391.795 312H376V248H392ZM326.86 251.884L317.399 236.115C316.705 234.957 316.315 233.642 316.266 232.292C316.216 230.942 316.509 229.602 317.117 228.396C317.725 227.19 318.628 226.158 319.743 225.395C320.857 224.632 322.146 224.163 323.49 224.032L345.14 260.116C345.851 261.301 346.856 262.281 348.058 262.962C349.261 263.642 350.619 264 352 264H360V296H352C349.878 296 347.843 296.843 346.343 298.343L332.687 312H294.124C292.175 311.997 290.294 311.284 288.833 309.994C287.372 308.704 286.431 306.926 286.186 304.992L282.186 272.992C282.046 271.867 282.146 270.724 282.48 269.64C282.815 268.556 283.376 267.556 284.127 266.705C284.877 265.855 285.8 265.174 286.834 264.708C287.868 264.241 288.99 264 290.124 264H320C321.416 264 322.806 263.624 324.029 262.911C325.252 262.198 326.264 261.174 326.962 259.942C327.659 258.71 328.018 257.315 328 255.899C327.982 254.483 327.589 253.098 326.86 251.884V251.884ZM432 480H384.788L396.678 467.007C397.516 466.091 398.13 464.992 398.471 463.798L432 346.074V480ZM383.6 457.599L371.522 470.796L368.211 453.216L450.966 162.66L466.354 167.043L383.6 457.599ZM475.119 136.267L470.736 151.654L455.349 147.272L459.731 131.884C460.313 129.843 461.681 128.117 463.534 127.085C465.388 126.053 467.576 125.8 469.617 126.381C471.657 126.963 473.383 128.331 474.415 130.184C475.447 132.038 475.7 134.226 475.119 136.267V136.267Z" fill="black"/>
<path d="M192 216H224C226.122 216 228.156 215.157 229.657 213.657C231.157 212.157 232 210.122 232 208V177.543C241.151 172.26 248.303 164.105 252.346 154.342C256.39 144.58 257.099 133.757 254.364 123.55C251.63 113.344 245.603 104.325 237.221 97.8927C228.838 91.4602 218.566 87.9736 208 87.9736C197.434 87.9736 187.162 91.4602 178.779 97.8927C170.397 104.325 164.37 113.344 161.636 123.55C158.901 133.757 159.61 144.58 163.654 154.342C167.697 164.105 174.849 172.26 184 177.543V208C184 210.122 184.843 212.157 186.343 213.657C187.844 215.157 189.878 216 192 216ZM216 200H200V183.321C205.295 184.227 210.705 184.227 216 183.321V200ZM176 136C176.001 130.015 177.68 124.151 180.846 119.072C184.013 113.994 188.541 109.905 193.915 107.271C199.289 104.636 205.294 103.562 211.248 104.169C217.202 104.776 222.866 107.041 227.597 110.707C232.329 114.372 235.937 119.291 238.013 124.904C240.089 130.517 240.549 136.6 239.342 142.462C238.134 148.324 235.306 153.729 231.18 158.065C227.054 162.4 221.795 165.491 216 166.988V136H200V166.988C193.135 165.205 187.056 161.196 182.713 155.589C178.37 149.982 176.009 143.093 176 136V136Z" fill="black"/>
<path d="M120 200V240C120.008 246.363 122.539 252.463 127.038 256.963C131.537 261.462 137.637 263.993 144 264H160V328H176V256C176 253.878 175.157 251.844 173.657 250.343C172.157 248.843 170.122 248 168 248H144C141.879 247.998 139.846 247.154 138.346 245.654C136.846 244.155 136.003 242.121 136 240V192C136 189.878 135.157 187.844 133.657 186.343C132.157 184.843 130.122 184 128 184H116.945L135.156 147.578C135.711 146.467 136 145.242 136 144V136C136 116.905 143.586 98.591 157.089 85.0884C170.591 71.5858 188.905 64.0001 208 64.0001C227.096 64.0001 245.409 71.5858 258.912 85.0884C272.415 98.591 280 116.905 280 136V140.118C280.056 160.597 276.05 180.884 268.213 199.804C260.376 218.724 248.864 235.902 234.343 250.343C232.843 251.843 232 253.878 232 256V328H248V259.269C271.483 234.988 287.225 204.28 293.231 171.04C305.974 183.713 322.996 191.163 340.952 191.924C358.908 192.685 376.5 186.703 390.27 175.154C404.04 163.604 412.993 147.323 415.368 129.508C417.744 111.694 413.372 93.6345 403.11 78.88C402.441 77.9204 401.57 77.1191 400.558 76.5326C399.546 75.9461 398.417 75.5887 397.252 75.4854C396.087 75.3822 394.913 75.5356 393.814 75.935C392.715 76.3344 391.716 76.97 390.889 77.797L336 132.687L317.658 114.343L306.343 125.657L330.343 149.657C331.844 151.157 333.879 152 336 152C338.122 152 340.157 151.157 341.658 149.657L394.839 96.4747C400.869 109.512 401.66 124.369 397.047 137.973C392.435 151.577 382.772 162.889 370.056 169.571C357.34 176.253 342.543 177.794 328.723 173.876C314.903 169.958 303.117 160.88 295.8 148.519C295.933 145.73 296 142.93 296 140.118V136C296.01 125.239 294.035 114.569 290.176 104.524C292.505 96.4343 296.628 88.9736 302.237 82.6961C307.847 76.4187 314.799 71.486 322.576 68.2646C330.354 65.0431 338.758 63.6157 347.163 64.0885C355.568 64.5612 363.759 66.9219 371.126 70.9952L378.89 57.005C370.532 52.3809 361.337 49.4649 351.842 48.4268C342.346 47.3887 332.739 48.2492 323.579 50.9582C314.419 53.6671 305.889 58.1705 298.486 64.2063C291.082 70.2421 284.953 77.6899 280.454 86.1163C269.814 70.6481 254.505 58.9894 236.765 52.8449C219.024 46.7005 199.784 46.3925 181.856 51.9661C163.928 57.5398 148.254 68.7026 137.124 83.8224C125.995 98.9422 119.994 117.226 120 136V142.111L96.8451 188.422C96.235 189.642 95.9469 190.997 96.0081 192.359C96.0692 193.722 96.4777 195.046 97.1946 196.206C97.9116 197.366 98.9132 198.324 100.104 198.988C101.295 199.652 102.637 200 104 200H120Z" fill="black"/>
<path d="M360 344H104V360H360V344Z" fill="black"/>
<path d="M344 384H104V400H344V384Z" fill="black"/>
<path d="M336 424H160V440H336V424Z" fill="black"/>
</svg>
